<svg width="9" height="9" viewBox="0 0 9 9" fill="none" xmlns="http://www.w3.org/2000/svg"><path d="M1.03459 0.168832C0.921161 0.0592745 0.769245 -0.0013476 0.611559 2.27361e-05C0.453873 0.00139308 0.303034 0.0646464 0.191529 0.176159C0.0800236 0.287671 0.0167745 0.438521 0.0154043 0.596217C0.014034 0.753914 0.0746521 0.90584 0.184203 1.01927L3.65731 4.49261L0.183601 7.96594C0.126161 8.02143 0.0803447 8.08779 0.0488258 8.16117C0.0173068 8.23455 0.000716616 8.31347 2.27072e-05 8.39333C-0.000671202 8.47319 0.0145452 8.55239 0.0447843 8.6263C0.0750234 8.70022 0.119679 8.76737 0.176147 8.82384C0.232614 8.88031 0.299762 8.92497 0.373672 8.95521C0.447583 8.98545 0.526775 9.00067 0.606629 8.99998C0.686483 8.99928 0.765399 8.98269 0.838773 8.95117C0.912146 8.91965 0.978508 8.87383 1.03399 8.81639L4.50769 5.34305L7.98079 8.81639C8.09422 8.92594 8.24614 8.98657 8.40382 8.9852C8.56151 8.98382 8.71235 8.92057 8.82385 8.80906C8.93536 8.69755 8.99861 8.5467 8.99998 8.389C9.00135 8.2313 8.94073 8.07938 8.83118 7.96594L5.35807 4.49261L8.83118 1.01927C8.94073 0.90584 9.00135 0.753914 8.99998 0.596217C8.99861 0.438521 8.93536 0.287671 8.82385 0.176159C8.71235 0.0646464 8.56151 0.00139308 8.40382 2.27361e-05C8.24614 -0.0013476 8.09422 0.0592745 7.98079 0.168832L4.50769 3.64217L1.03459 0.168231V0.168832Z" fill="#CF884A"/></svg>