<svg width="80" height="80" viewBox="0 0 80 80" fill="none" xmlns="http://www.w3.org/2000/svg"><path d="M38.1 0H41.87C61.93 0.45 79.48 18.16 80 38.17V41.95C79.41 61.95 61.84 79.57 41.8 80H38.11C18.1 79.52 0.57 61.92 0 41.94V36.33C1.2 26.19 5.97 16.35 13.84 9.73C20.45 3.79 29.25 0.43 38.1 0ZM10.84 15.95C3.05 24.83 0.44 37.63 3.21 49.01C5.27 58.68 11.93 66.66 19.85 72.26C20.04 68.09 19.05 63.39 21.77 59.82C23.76 56.7 27.46 55.59 30.93 55.21C33.13 55.31 33.92 53.13 34.88 51.58C30.54 48.94 27.13 44.7 26.71 39.47C22.18 37.4 23.99 31.85 23.63 27.92C23.96 25.12 22.65 21.24 25.42 19.38C28.51 17.3 30.22 13.42 34.06 12.46C37.93 11.49 42 12.2 45.95 11.97C51.65 11.54 57.11 16.38 57.4 22.08C57.55 26.84 57.68 31.62 57.26 36.37C56.78 36.24 55.83 35.97 55.35 35.84C54.44 30.03 56.71 23.56 53.78 18.21C50.4 12.78 43.33 14.17 37.94 14.09C33.96 13.92 30.58 16.63 28.87 20.06C27.67 20.73 25.64 21.01 25.98 22.88C25.99 27.69 25.55 32.57 26.34 37.34C27.62 33.71 25.78 29.39 28.23 26.15C29.73 24.04 32.39 23.12 34.91 23.22C39.2 23.25 43.5 23.08 47.78 23.32C51.52 23.62 54.52 27.2 54.13 30.95C53.98 36.19 55.13 42.08 51.71 46.58C48.54 51.34 42.42 53.19 36.96 52.06C36.18 53.78 35.3 55.46 34.01 56.85C35.69 58.35 37.47 60.18 39.91 60.08C42.45 60.43 44.56 58.79 46.82 57.95C48.22 61.06 43.74 61.6 41.73 62.46C41.65 64.19 41.68 65.94 41.43 67.66C38.47 69.26 39.6 64.14 39.28 62.47C36.2 61.91 33.85 59.9 31.75 57.71C27.83 56.99 23.51 59.64 22.41 63.56C21.62 66.73 22.22 70.04 21.93 73.27C33.2 79.61 47.87 79.34 59 72.79C58.92 69.94 59.19 67.06 58.77 64.24C58.02 60.56 54.66 57.77 50.9 57.68C48.03 57.55 44.76 55.89 44.84 52.59C47.09 53.22 48.63 55.36 51.08 55.39C54.5 55.7 57.89 57.35 59.62 60.42C61.81 63.75 60.99 67.89 61.16 71.64C69.36 65.43 75.99 56.56 77.36 46.15C79.54 33.6 74.86 20.15 65.19 11.82C57.21 4.29 45.69 0.96 34.88 2.51C25.47 3.53 16.8 8.68 10.84 15.95ZM33.39 25.56C30.82 25.79 28.79 28.34 29.02 30.9C29.17 36.02 27.99 41.97 31.78 46.12C36.02 51.43 44.95 51.44 49.2 46.14C53.01 41.99 51.84 36.04 51.98 30.91C52.25 28.08 49.76 25.43 46.93 25.49C42.42 25.4 37.89 25.29 33.39 25.56Z" fill="currentColor"/></svg>