<svg width="24" height="24" viewBox="0 0 24 24" fill="none" xmlns="http://www.w3.org/2000/svg"><g clip-path="url(#clip0)" fill="currentColor"><path d="M5.14135 10.123L2.83899 16.2642V16.2647C3.40239 18.5155 4.64076 20.5052 6.39377 22.0061L9.28251 20.9229C6.21421 18.1747 4.69977 14.1324 5.14135 10.123Z"/><path d="M2.05947 18.343L0.294736 23.0485C0.0838115 23.6105 0.633622 24.1664 1.19984 23.9536L4.92289 22.5578C3.67412 21.3457 2.70542 19.9013 2.05947 18.343Z"/><path d="M10.077 9.55021L7.45257 6.92584C5.32476 11.7256 6.77944 17.2118 10.7941 20.3561L13.5952 19.3057C11.1351 16.7652 9.80458 13.2192 10.077 9.55021Z"/><path d="M11.4498 10.9231C11.5576 13.9065 12.8569 16.7259 15.0552 18.7578H15.0557L17.1087 17.9881C17.5882 17.8081 17.7194 17.1927 17.359 16.8323L11.4498 10.9231Z"/><path d="M16.585 13.132C16.8595 13.4065 17.3047 13.4065 17.5793 13.132C20.2244 10.4869 22.7999 11.3046 22.8257 11.3132C23.194 11.4359 23.5922 11.2369 23.715 10.8685C23.8379 10.5002 23.6387 10.1019 23.2703 9.97913C23.1317 9.93296 19.8378 8.8848 16.585 12.1377C16.3104 12.4122 16.3103 12.8574 16.585 13.132Z"/><path d="M12.1107 7.66317C15.3636 4.41071 14.3151 1.11653 14.2692 0.977793C14.1464 0.609377 13.7479 0.410639 13.3795 0.533444C13.0116 0.656249 12.8124 1.05419 12.9352 1.42261C12.9436 1.44839 13.7615 4.02401 11.1161 6.66901C10.8432 6.94185 10.8405 7.38672 11.1161 7.66317C11.3921 7.93915 11.8369 7.937 12.1107 7.66317Z"/><path d="M13.6022 9.15477C13.3276 9.42934 13.3276 9.87449 13.6022 10.1491C13.8742 10.4212 14.3163 10.4247 14.5923 10.1532C14.9555 9.97226 16.0829 10.6511 16.7094 10.0248C17.3292 9.40492 16.6707 8.30047 16.8352 7.9134C17.2228 7.74851 18.3268 8.40734 18.9466 7.7876C19.5665 7.16776 18.908 6.06331 19.0724 5.6762C19.4606 5.51125 20.564 6.17018 21.1838 5.55039C21.8037 4.93055 21.1452 3.8261 21.3096 3.43899C21.6955 3.27489 22.8017 3.93232 23.4211 3.31313C24.0473 2.68678 23.3698 1.5574 23.5495 1.19606C23.8199 0.921202 23.8185 0.479151 23.5453 0.205933C23.2708 -0.0686443 22.8256 -0.0686443 22.551 0.205933C21.9968 0.760102 22.1052 1.54245 22.2096 2.10177C21.6503 1.99739 20.868 1.88897 20.3138 2.44309C19.7597 2.99726 19.8681 3.77961 19.9725 4.33893C19.4131 4.2346 18.6308 4.12609 18.0766 4.6803C17.5225 5.23447 17.6309 6.01682 17.7353 6.57614C17.1759 6.47176 16.3936 6.36329 15.8395 6.91746C15.2853 7.47163 15.3937 8.25398 15.4981 8.8133C14.9387 8.70901 14.1563 8.6006 13.6022 9.15477Z"/><path d="M17.5793 3.18888C17.8538 2.9143 17.8538 2.46916 17.5793 2.19458C17.3047 1.92 16.8595 1.92 16.585 2.19458C16.3104 2.46916 16.3104 2.9143 16.585 3.18888C16.8595 3.46345 17.3047 3.46345 17.5793 3.18888Z"/><path d="M22.0538 8.36637C22.4421 8.36637 22.7569 8.05159 22.7569 7.66329C22.7569 7.27499 22.4421 6.96021 22.0538 6.96021C21.6655 6.96021 21.3507 7.27499 21.3507 7.66329C21.3507 8.05159 21.6655 8.36637 22.0538 8.36637Z"/><path d="M20.5623 14.1263C20.2877 14.4009 20.2877 14.846 20.5623 15.1206C20.8368 15.3952 21.282 15.3952 21.5566 15.1206C21.8311 14.846 21.8311 14.4009 21.5566 14.1263C21.282 13.8517 20.8368 13.8517 20.5623 14.1263Z"/><path d="M10.6192 4.1832C10.8938 3.90863 10.8938 3.46348 10.6192 3.1889C10.3446 2.91433 9.89945 2.91433 9.62488 3.1889C9.3503 3.46343 9.3503 3.90863 9.62488 4.1832C9.89945 4.45778 10.3446 4.45778 10.6192 4.1832Z"/></g><defs><clipPath id="clip0"><path fill="currentColor" d="M0 0H24V24H0z"/></clipPath></defs></svg>