<svg width="24" height="24" viewBox="0 0 24 24" fill="none" xmlns="http://www.w3.org/2000/svg"><g clip-path="url(#clip0)" fill="currentColor"><path d="M8.625 12.7031C8.23669 12.7031 7.92188 12.3883 7.92188 12V4.125C7.92188 2.62589 6.72328 1.40625 5.25 1.40625C4.86169 1.40625 4.54688 1.09144 4.54688 0.703125C4.54688 0.314812 4.86169 0 5.25 0C6.339 0 7.36477 0.434203 8.13834 1.22264C8.90559 2.00461 9.32812 3.03534 9.32812 4.125V12C9.32812 12.3884 9.01336 12.7031 8.625 12.7031Z"/><path d="M16.125 4.82812H8.625C8.23669 4.82812 7.92188 4.51331 7.92188 4.125C7.92188 3.73669 8.23669 3.42188 8.625 3.42188H15.3313C15.026 2.26242 13.9845 1.40625 12.75 1.40625C12.3617 1.40625 12.0469 1.09144 12.0469 0.703125C12.0469 0.314812 12.3617 0 12.75 0C13.839 0 14.8648 0.434203 15.6383 1.22264C16.4056 2.00461 16.8281 3.03534 16.8281 4.125C16.8281 4.51336 16.5134 4.82812 16.125 4.82812Z"/><path d="M16.125 12.3286C15.7367 12.3286 15.4219 12.0138 15.4219 11.6255V4.125C15.4219 3.73669 15.7367 3.42188 16.125 3.42188C16.5133 3.42188 16.8281 3.73669 16.8281 4.125V11.6255C16.8281 12.0138 16.5134 12.3286 16.125 12.3286Z"/><path d="M16.125 8.57812H8.625C8.23669 8.57812 7.92188 8.26331 7.92188 7.875C7.92188 7.48669 8.23669 7.17188 8.625 7.17188H16.125C16.5133 7.17188 16.8281 7.48669 16.8281 7.875C16.8281 8.26331 16.5134 8.57812 16.125 8.57812Z"/><path d="M23.2499 23.9998H0.749956C0.362863 23.9998 0.0485669 23.6869 0.0468325 23.2999L0.00675443 14.3267C0.00141069 13.1431 0.524253 12.0351 1.44113 11.2866C2.35702 10.539 3.67809 10.6056 4.51406 11.4415L4.6221 11.5496C4.96832 11.8958 5.53152 11.8958 5.87774 11.5496C6.31105 11.1162 6.88696 10.8777 7.49947 10.8777H7.50196C8.1141 10.8783 8.68944 11.1169 9.1221 11.5496C9.46831 11.8958 10.0315 11.8958 10.3777 11.5496C10.811 11.1162 11.387 10.8777 11.9995 10.8777H12.0019C12.6141 10.8783 13.1895 11.1169 13.6221 11.5496C13.9683 11.8958 14.5316 11.8958 14.8777 11.5496C15.311 11.1162 15.8869 10.8777 16.4995 10.8777H16.5019C17.1141 10.8783 17.6895 11.1169 18.1221 11.5496C18.4682 11.8958 19.0315 11.8958 19.3777 11.5496L19.4857 11.4416C20.3217 10.6056 21.6428 10.539 22.5586 11.2866C23.4756 12.035 23.9984 13.1431 23.9932 14.3266L23.953 23.2999C23.9513 23.687 23.637 23.9998 23.2499 23.9998ZM1.44994 22.5936H22.5499L22.5869 14.3204C22.5902 13.5634 22.2558 12.8546 21.6694 12.376V12.3759C21.315 12.0867 20.8036 12.1124 20.4801 12.4359L20.3721 12.5439C19.4776 13.4385 18.0221 13.4384 17.1277 12.5439C16.9603 12.3765 16.7375 12.2842 16.5004 12.2839C16.5001 12.2839 16.4998 12.2839 16.4995 12.2839C16.2625 12.2839 16.0398 12.3762 15.872 12.5439C14.9776 13.4384 13.5221 13.4384 12.6277 12.5439C12.2815 12.1978 11.7183 12.1978 11.372 12.5439C10.4776 13.4384 9.02216 13.4384 8.12769 12.5439C7.96025 12.3765 7.73746 12.2842 7.50041 12.2839C7.50013 12.2839 7.49975 12.2839 7.49943 12.2839C7.26252 12.2839 7.03972 12.3762 6.87201 12.5439C5.97754 13.4384 4.52212 13.4384 3.62765 12.5439L3.51961 12.4359C3.19608 12.1123 2.68472 12.0865 2.3303 12.3759C1.74384 12.8547 1.40944 13.5634 1.41286 14.3204L1.44994 22.5936Z"/><path d="M23.2964 17.2501C23.1401 17.2501 22.9828 17.1982 22.8522 17.0916L21.6695 16.1261C21.315 15.8368 20.8038 15.8626 20.4802 16.1861L20.3722 16.2941C19.9389 16.7274 19.3628 16.966 18.75 16.966C18.1373 16.966 17.5611 16.7274 17.1279 16.2941C16.7817 15.9479 16.2184 15.9479 15.8722 16.2941C14.9777 17.1886 13.5223 17.1886 12.6279 16.2941C12.2817 15.9479 11.7184 15.9479 11.3722 16.2941C10.4778 17.1886 9.02234 17.1886 8.12787 16.2941C7.78165 15.9479 7.21845 15.9479 6.87223 16.2941C6.43962 16.7267 5.86423 16.9653 5.25209 16.966C5.25125 16.966 5.25041 16.966 5.24961 16.966C4.6371 16.966 4.06124 16.7274 3.62788 16.2941L3.51988 16.1861C3.19625 15.8626 2.68504 15.8367 2.33052 16.1261L1.14777 17.0916C0.847025 17.3372 0.404057 17.2923 0.15848 16.9916C-0.0870981 16.6907 -0.0423326 16.2478 0.258511 16.0023L1.44121 15.0367C2.3571 14.2892 3.67813 14.3557 4.51419 15.1917L4.62219 15.2997C4.96845 15.6459 5.53166 15.646 5.87787 15.2998C6.31119 14.8665 6.88709 14.6279 7.49961 14.6279H7.50209C8.11423 14.6285 8.68957 14.8671 9.12223 15.2998C9.46845 15.646 10.0316 15.646 10.3779 15.2998C11.2723 14.4053 12.7278 14.4053 13.6222 15.2998C13.9684 15.646 14.5317 15.646 14.8779 15.2998C15.3112 14.8665 15.8871 14.6279 16.4996 14.6279H16.5021C17.1142 14.6285 17.6896 14.8671 18.1222 15.2998C18.4684 15.646 19.0317 15.646 19.3778 15.2998L19.4858 15.1918C20.3219 14.3557 21.643 14.2891 22.5588 15.0368L23.7415 16.0023C24.0424 16.2478 24.0871 16.6907 23.8416 16.9915C23.7026 17.1618 23.5003 17.2501 23.2964 17.2501Z"/><path d="M23.2964 20.9999C23.1401 20.9999 22.9828 20.948 22.8522 20.8414L21.6695 19.8759C21.315 19.5866 20.8038 19.6124 20.4802 19.9359L20.3722 20.0439C19.9389 20.4772 19.3628 20.7158 18.75 20.7158C18.1373 20.7158 17.5611 20.4772 17.1279 20.0439C16.7817 19.6977 16.2184 19.6977 15.8722 20.0439C14.9777 20.9384 13.5223 20.9384 12.6279 20.0439C12.2817 19.6977 11.7184 19.6977 11.3722 20.0439C10.4778 20.9384 9.02234 20.9384 8.12787 20.0439C7.78165 19.6977 7.21845 19.6977 6.87223 20.0439C6.43962 20.4765 5.86423 20.7151 5.25209 20.7158C5.25125 20.7158 5.25041 20.7158 5.24961 20.7158C4.6371 20.7158 4.06124 20.4772 3.62788 20.0439L3.51988 19.9359C3.19625 19.6124 2.68504 19.5865 2.33052 19.8759L1.14777 20.8414C0.847025 21.087 0.404057 21.0421 0.15848 20.7414C-0.0870981 20.4405 -0.0423326 19.9976 0.258511 19.752L1.44121 18.7865C2.3571 18.0389 3.67813 18.1055 4.51419 18.9415L4.62219 19.0495C4.96845 19.3957 5.53166 19.3957 5.87787 19.0496C6.31119 18.6163 6.88709 18.3777 7.49961 18.3777H7.50209C8.11423 18.3783 8.68957 18.6169 9.12223 19.0496C9.46845 19.3957 10.0316 19.3957 10.3779 19.0496C11.2723 18.1551 12.7278 18.1551 13.6222 19.0496C13.9684 19.3957 14.5317 19.3957 14.8779 19.0496C15.3112 18.6163 15.8871 18.3777 16.4996 18.3777H16.5021C17.1142 18.3783 17.6896 18.6169 18.1222 19.0496C18.4684 19.3957 19.0317 19.3957 19.3778 19.0496L19.4858 18.9416C20.3219 18.1055 21.643 18.0389 22.5588 18.7866L23.7415 19.752C24.0424 19.9976 24.0871 20.4405 23.8416 20.7413C23.7026 20.9116 23.5003 20.9999 23.2964 20.9999Z"/></g><defs><clipPath id="clip0"><path fill="currentColor" d="M0 0H24V24H0z"/></clipPath></defs></svg>