<svg width="31" height="26" viewBox="0 0 31 26" fill="none" xmlns="http://www.w3.org/2000/svg"><path d="M22.6411 24.198H29.787V21.3397C29.7869 20.4486 29.5092 19.5798 28.9925 18.8538C28.4759 18.1279 27.7458 17.581 26.904 17.2891C26.0621 16.9972 25.1502 16.9748 24.2951 17.2251C23.4399 17.4754 22.684 17.986 22.1324 18.6857M22.6411 24.198H8.34954M22.6411 24.198V21.3397C22.6411 20.4021 22.4611 19.5061 22.1324 18.6857M22.1324 18.6857C21.6016 17.3594 20.6857 16.2225 19.5027 15.4217C18.3197 14.6209 16.9239 14.1929 15.4953 14.1929C14.0668 14.1929 12.671 14.6209 11.488 15.4217C10.305 16.2225 9.38905 17.3594 8.85832 18.6857M8.34954 24.198H1.20374V21.3397C1.2038 20.4486 1.48147 19.5798 1.99815 18.8538C2.51483 18.1279 3.24484 17.581 4.08671 17.2891C4.92858 16.9972 5.84047 16.9748 6.69563 17.2251C7.55078 17.4754 8.30671 17.986 8.85832 18.6857M8.34954 24.198V21.3397C8.34954 20.4021 8.52961 19.5061 8.85832 18.6857M19.7828 5.6189C19.7828 6.75601 19.3311 7.84655 18.5271 8.65061C17.723 9.45467 16.6325 9.90639 15.4953 9.90639C14.3582 9.90639 13.2677 9.45467 12.4636 8.65061C11.6596 7.84655 11.2079 6.75601 11.2079 5.6189C11.2079 4.48179 11.6596 3.39125 12.4636 2.5872C13.2677 1.78314 14.3582 1.33142 15.4953 1.33142C16.6325 1.33142 17.723 1.78314 18.5271 2.5872C19.3311 3.39125 19.7828 4.48179 19.7828 5.6189ZM28.3578 9.90639C28.3578 10.6645 28.0566 11.3915 27.5206 11.9275C26.9846 12.4636 26.2575 12.7647 25.4995 12.7647C24.7414 12.7647 24.0144 12.4636 23.4783 11.9275C22.9423 11.3915 22.6411 10.6645 22.6411 9.90639C22.6411 9.14831 22.9423 8.42129 23.4783 7.88525C24.0144 7.34921 24.7414 7.04806 25.4995 7.04806C26.2575 7.04806 26.9846 7.34921 27.5206 7.88525C28.0566 8.42129 28.3578 9.14831 28.3578 9.90639ZM8.34954 9.90639C8.34954 10.6645 8.0484 11.3915 7.51236 11.9275C6.97632 12.4636 6.24929 12.7647 5.49122 12.7647C4.73314 12.7647 4.00612 12.4636 3.47008 11.9275C2.93404 11.3915 2.6329 10.6645 2.6329 9.90639C2.6329 9.14831 2.93404 8.42129 3.47008 7.88525C4.00612 7.34921 4.73314 7.04806 5.49122 7.04806C6.24929 7.04806 6.97632 7.34921 7.51236 7.88525C8.0484 8.42129 8.34954 9.14831 8.34954 9.90639Z" stroke="#0C4743" stroke-width="2.2" stroke-linecap="round" stroke-linejoin="round" opacity=".5"/></svg>