<svg width="22" height="22" viewBox="0 0 22 22" fill="none" xmlns="http://www.w3.org/2000/svg"><g clip-path="url(#clip0)" fill="currentColor"><path d="M3.44251 22C2.89893 22 2.38777 21.778 2.00306 21.3747C1.62987 20.9836 1.42432 20.4736 1.42432 19.9389V8.94617C1.42432 7.83333 2.32967 6.92798 3.44251 6.92798C4.55535 6.92798 5.4607 7.83333 5.4607 8.94617V19.9389C5.4607 20.4755 5.25416 20.9864 4.87912 21.3777C4.49441 21.779 3.9842 22 3.44251 22ZM3.44251 8.21614C3.03999 8.21614 2.71252 8.54361 2.71252 8.94613V19.9388C2.71252 20.3506 3.05364 20.7118 3.44251 20.7118C3.83137 20.7118 4.17249 20.3506 4.17249 19.9388V8.94613C4.17249 8.54361 3.84503 8.21614 3.44251 8.21614Z"/><path d="M19.9746 22C18.838 22 17.9135 21.0754 17.9135 19.9389V12.7249C17.9135 12.3692 18.2018 12.0808 18.5576 12.0808H21.3487C21.7044 12.0808 21.9928 12.3692 21.9928 12.7249V19.9389C21.9928 20.4755 21.7862 20.9864 21.4111 21.3777C21.0265 21.779 20.5163 22 19.9746 22ZM19.2017 13.369V19.9389C19.2017 20.3188 19.4907 20.7118 19.9746 20.7118C20.3634 20.7118 20.7046 20.3506 20.7046 19.9389V13.369H19.2017Z"/><path d="M11 13.7129C9.88717 13.7129 8.98181 12.8075 8.98181 11.6947V2.03314C8.98181 0.920306 9.88717 0.0149536 11 0.0149536C12.1128 0.0149536 13.0182 0.920306 13.0182 2.03314V11.6947C13.0182 12.8075 12.1128 13.7129 11 13.7129ZM11 1.30312C10.5975 1.30312 10.27 1.63058 10.27 2.0331V11.6947C10.27 12.0972 10.5975 12.4246 11 12.4246C11.4025 12.4246 11.73 12.0972 11.73 11.6947V2.0331C11.73 1.63058 11.4025 1.30312 11 1.30312Z"/><path d="M3.44257 8.21648C3.08685 8.21648 2.79846 7.92809 2.79846 7.57237V0.658996C2.79846 0.303279 3.08685 0.0148926 3.44257 0.0148926C3.79829 0.0148926 4.08667 0.303279 4.08667 0.658996V7.57237C4.08667 7.92813 3.79829 8.21648 3.44257 8.21648Z"/><path d="M6.19072 5.46812H0.651428C0.295711 5.46812 0.00732422 5.17973 0.00732422 4.82402V0.658813C0.00732422 0.303096 0.295711 0.0147095 0.651428 0.0147095C1.00714 0.0147095 1.29553 0.303096 1.29553 0.658813V4.17991H5.54661V0.658813C5.54661 0.303096 5.835 0.0147095 6.19072 0.0147095C6.54644 0.0147095 6.83482 0.303096 6.83482 0.658813V4.82402C6.83482 5.17978 6.54644 5.46812 6.19072 5.46812Z"/><path d="M11.0001 16.4608C10.6443 16.4608 10.356 16.1724 10.356 15.8166V13.0685C10.356 12.7128 10.6443 12.4244 11.0001 12.4244C11.3558 12.4244 11.6442 12.7128 11.6442 13.0685V15.8166C11.6442 16.1724 11.3558 16.4608 11.0001 16.4608Z"/><path d="M11 22C10.2294 22 9.52723 21.4252 8.96948 20.3376C8.55966 19.5386 8.2948 18.573 8.2948 17.8778C8.2948 16.3861 9.50838 15.1725 11 15.1725C12.4917 15.1725 13.7053 16.3861 13.7053 17.8778C13.7053 18.573 13.4405 19.5386 13.0306 20.3376C12.4729 21.4252 11.7706 22 11 22ZM11 16.4608C10.2187 16.4608 9.58301 17.0964 9.58301 17.8778C9.58301 18.2791 9.7497 19.0362 10.1157 19.7498C10.4547 20.4108 10.8117 20.7118 11 20.7118C11.1883 20.7118 11.5453 20.4108 11.8844 19.7498C12.2504 19.0362 12.4171 18.2791 12.4171 17.8778C12.4171 17.0964 11.7814 16.4608 11 16.4608Z"/><path d="M21.3487 13.3692H15.8094C15.4537 13.3692 15.1653 13.0808 15.1653 12.7251V5.78738C15.1653 4.16999 15.8248 2.66854 17.0223 1.55961C18.2132 0.456736 19.8085 -0.105524 21.398 0.016641C21.7336 0.042491 21.9928 0.32229 21.9928 0.658855V12.7251C21.9928 13.0808 21.7044 13.3692 21.3487 13.3692ZM16.4535 12.081H20.7046V1.29626C19.6749 1.35835 18.6766 1.78333 17.8976 2.50481C16.9663 3.36714 16.4535 4.53292 16.4535 5.78738V12.081Z"/></g><defs><clipPath id="clip0"><path fill="currentColor" d="M0 0H22V22H0z"/></clipPath></defs></svg>