<svg width="22" height="22" viewBox="0 0 22 22" fill="none" xmlns="http://www.w3.org/2000/svg"><path d="M21.1639 1.74621L21.9998 0.910335L21.0895 0C20.0404 1.04912 9.79455 11.295 8.63004 12.4595C6.71805 11.2217 4.17041 12.4659 3.94748 14.7145L0.000244141 18.6624L3.33784 22L7.28468 18.0525C8.93953 17.8888 10.2049 16.3983 10.0048 14.6654C12.2744 15.0407 14.2464 13.1008 13.8781 10.8097C16.147 11.1678 18.1236 9.22059 17.759 6.92499C18.4342 7.03223 19.1095 6.93598 19.7122 6.65863V17.1387C19.7122 17.6356 19.3079 18.0399 18.811 18.0399C18.3141 18.0399 17.9098 17.6356 17.9098 17.1387V15.5938H16.6224V17.1387C16.6224 18.3455 17.6042 19.3274 18.811 19.3274C20.0178 19.3274 20.9996 18.3455 20.9996 17.1387V5.62204C21.8903 4.44894 21.902 2.87266 21.1639 1.74621ZM3.33775 20.1793L1.82079 18.6623L4.20341 16.2793C4.50776 16.9496 5.04904 17.4915 5.7203 17.7963L3.33775 20.1793ZM8.2233 16.2648C7.53569 16.9524 6.42276 16.9525 5.73506 16.2648C5.04745 15.5772 5.04736 14.4643 5.73506 13.7766C6.42104 13.0906 7.53728 13.0905 8.2233 13.7766C8.90928 14.4626 8.90928 15.5787 8.2233 16.2648ZM9.67869 13.2315L12.4417 10.4684C13.2626 12.2266 11.4378 14.0528 9.67869 13.2315ZM13.5352 9.375L16.325 6.58516C17.1415 8.34806 15.2989 10.1917 13.5352 9.375ZM17.4188 5.49132L20.2196 2.69062C20.554 3.41089 20.4402 4.32711 19.8736 4.9676C19.2783 5.65049 18.2805 5.89051 17.4188 5.49132Z" fill="currentColor"/></svg>