<svg width="22" height="22" viewBox="0 0 22 22" fill="none" xmlns="http://www.w3.org/2000/svg"><g clip-path="url(#clip0)"><path d="M11.0027 0H10.9972C4.93206 0 -6.10352e-05 4.9335 -6.10352e-05 11C-6.10352e-05 13.4062 0.775439 15.6365 2.09406 17.4474L0.723189 21.5339L4.95131 20.1823C6.69069 21.3345 8.76556 22 11.0027 22C17.0678 22 21.9999 17.0651 21.9999 11C21.9999 4.93488 17.0678 0 11.0027 0Z" fill="#4CAF50"/><path d="M17.4029 15.5334C17.1376 16.2828 16.0843 16.9043 15.2442 17.0858C14.6694 17.2081 13.9187 17.3058 11.3914 16.258C8.15882 14.9188 6.07707 11.6339 5.91482 11.4208C5.75944 11.2076 4.60857 9.68138 4.60857 8.10288C4.60857 6.52438 5.41019 5.75575 5.73332 5.42575C5.99869 5.15488 6.43732 5.03113 6.85807 5.03113C6.99419 5.03113 7.11657 5.038 7.22657 5.0435C7.54969 5.05725 7.71194 5.0765 7.92507 5.58663C8.19044 6.226 8.83669 7.8045 8.91369 7.96675C8.99207 8.129 9.07044 8.349 8.96044 8.56213C8.85732 8.78213 8.76657 8.87975 8.60432 9.06675C8.44207 9.25375 8.28807 9.39675 8.12582 9.5975C7.97732 9.77213 7.80957 9.95913 7.99657 10.2823C8.18357 10.5985 8.82982 11.6531 9.78132 12.5001C11.0092 13.5933 12.0047 13.9425 12.3608 14.091C12.6262 14.201 12.9424 14.1749 13.1363 13.9686C13.3824 13.7033 13.6863 13.2633 13.9957 12.8301C14.2157 12.5194 14.4934 12.4809 14.7849 12.5909C15.0819 12.694 16.6536 13.4709 16.9767 13.6318C17.2998 13.794 17.5129 13.871 17.5913 14.0071C17.6683 14.1433 17.6683 14.7826 17.4029 15.5334Z" fill="#FAFAFA"/></g><defs><clipPath id="clip0"><path fill="#fff" d="M0 0H22V22H0z"/></clipPath></defs></svg>