<svg width="80" height="80" viewBox="0 0 80 80" fill="none" xmlns="http://www.w3.org/2000/svg"><path d="M38.21 0H41.77C50.41 0.41 59.03 3.58 65.58 9.28C74.19 16.3 79.51 27.13 80 38.21V41.86C79.49 52.91 74.18 63.7 65.59 70.7C59.04 76.39 50.44 79.59 41.81 80H38.28C18.19 79.6 0.55 61.93 0 41.87V36.48C1.17 26.31 5.92 16.41 13.82 9.78C20.45 3.78 29.32 0.42 38.21 0ZM25.11 5.07C14.47 9.84 5.84 19.48 3.19 30.94C0.22 43.1 3.47 56.74 12.29 65.75C16.07 69.35 19.93 73.3 25.04 74.9C36.24 79.53 49.75 78.81 60 72.15C59.97 69.75 60.08 67.34 59.89 64.94C59.47 61.41 56.57 58.16 52.94 57.84C50.28 57.57 47.09 56.95 45.96 54.14C45.67 51.94 48.3 53.35 48.89 54.21C51.37 56.17 55.12 55.08 57.6 57.25C62.22 60.11 62.49 65.95 62.12 70.8C67.14 66.87 71.53 62.05 74.27 56.25C78.88 46.56 78.99 34.94 74.9 25.05C70.97 16.27 63.74 9.01 54.95 5.09C45.51 1.18 34.55 1.17 25.11 5.07Z" fill="currentColor"/><path d="M25.87 20.04C27.79 15.7 32.11 12.5 36.84 12.03C42.75 11.94 49.67 11.04 54.17 15.81C58.51 19.66 58.55 25.73 58.37 31.06C58.03 35.59 61.76 38.85 62.51 43.1C63.34 47.09 62.37 51.47 59.83 54.68L58.5 54.46C58.23 51.92 60.59 49.74 60.53 47.1C61.48 41.49 56.23 37.5 56.19 32.06C55.78 28.14 56.87 23.83 54.76 20.25C52.58 15.96 47.65 13.71 42.96 14.05C38.12 13.72 32.54 14.25 29.4 18.47C24.52 24.2 29.04 32.54 24.75 38.58C21.27 43.44 21.7 50.69 26.18 54.79C27.5 56.87 30.03 55.38 31.94 55.28C34.14 55.27 35.06 53.15 35.83 51.45C32.39 49.29 29.23 46.28 28.28 42.19C27.57 38.4 27.84 34.5 27.97 30.67C28.47 30.7 29.46 30.76 29.95 30.79C30.32 35.73 28.94 41.37 32.33 45.57C36.38 51.37 45.82 51.68 50.21 46.13C53.58 42.55 53.01 37.39 52.99 32.88C50.5 32.35 48.48 30.76 47.62 28.34C43.11 30.93 38.15 33.09 32.88 33.28L32.48 32.12L33.04 31.34C38.66 30.39 44.01 28.25 48.69 25C49.4 26.4 49.93 27.89 50.68 29.28C51.74 30.55 53.62 30.39 55.1 30.81C54.94 35.91 56.1 41.57 53.03 46.06C49.98 51.16 43.58 53.26 37.92 52.04C37.27 53.51 36.53 54.94 35.69 56.31C37.63 57.8 39.56 59.28 41.48 60.78C43.18 59.82 44.7 57.21 46.9 58.2C46.56 60.71 43.65 61.73 41.89 63.18C38.62 62.3 36.24 59.07 33.3 57.29C29.74 57.57 25.64 58.51 24.01 62.11C22.12 65.15 23.75 68.91 22.69 72.07C22.34 72.07 21.64 72.09 21.29 72.09C19.99 67.04 20.68 60.55 25.3 57.21C19.81 52.36 18.48 43.67 22.76 37.61C26.35 32.35 23.19 25.57 25.87 20.04Z" fill="currentColor"/></svg>