<svg xmlns="http://www.w3.org/2000/svg" width="51" height="37" viewBox="0 0 51 37"><g><g><path fill="#0c4945" d="M46.268 16.148c2.725.755 4.732 3.255 4.732 6.216v8.63c0 .836-.678 1.514-1.514 1.514h-3.218v2.724a1.514 1.514 0 0 1-3.028 0v-2.724H7.76v2.724a1.514 1.514 0 0 1-3.028 0v-2.724H1.514A1.514 1.514 0 0 1 0 30.994v-8.63c0-2.961 2.007-5.461 4.732-6.216V4.791A4.546 4.546 0 0 1 9.272.25h32.455a4.546 4.546 0 0 1 4.541 4.541zM7.76 15.914h3.548v-3.04A4.798 4.798 0 0 1 16.1 8.083h6.121c1.268 0 2.421.496 3.28 1.302a4.774 4.774 0 0 1 3.278-1.302h6.12a4.798 4.798 0 0 1 4.793 4.793v3.039h3.548V4.791c0-.834-.679-1.513-1.513-1.513H9.273c-.834 0-1.513.679-1.513 1.513zm28.904-3.04c0-.972-.791-1.764-1.764-1.764h-6.121c-.973 0-1.765.792-1.765 1.765v3.039h9.65zm-12.678 0c0-.972-.792-1.764-1.765-1.764h-6.12c-.974 0-1.766.792-1.766 1.765v3.039h9.65zm23.986 9.49a3.426 3.426 0 0 0-3.422-3.422H6.45a3.426 3.426 0 0 0-3.422 3.422v7.116h44.944z"/></g></g></svg>