<svg xmlns="http://www.w3.org/2000/svg" width="45" height="39" viewBox="0 0 45 39"><g><g><path fill="#0c4945" d="M39.883 17.186C42.814 17.891 45 20.534 45 23.68v9.333c0 .74-.6 1.34-1.34 1.34h-3.777v3.243a1.34 1.34 0 1 1-2.682 0v-3.243H7.798v3.243a1.34 1.34 0 1 1-2.68 0v-3.243H1.34c-.74 0-1.341-.6-1.341-1.34v-9.333c0-3.145 2.186-5.788 5.117-6.493V4.674A4.62 4.62 0 0 1 9.731.06h25.537a4.62 4.62 0 0 1 4.615 4.614zM7.799 17h4.43v-2.115a6.362 6.362 0 0 1 6.355-6.355h7.832a6.362 6.362 0 0 1 6.355 6.355V17h4.43V4.674a1.935 1.935 0 0 0-1.932-1.933H9.73A1.935 1.935 0 0 0 7.8 4.674zm22.291-2.115a3.678 3.678 0 0 0-3.674-3.674h-7.832a3.678 3.678 0 0 0-3.674 3.674V17h15.18zM42.32 31.671v-7.992a4.002 4.002 0 0 0-3.998-3.998H6.679a4.002 4.002 0 0 0-3.998 3.998v7.992z"/></g></g></svg>