<svg xmlns="http://www.w3.org/2000/svg" width="101" height="87" viewBox="0 0 101 87">
    <g fill="none" fill-rule="evenodd" stroke="currentColor">
        <g>
            <path fill="#FFF" d="M62.812 18.921l.233 18.004c.028 2.157-.816 4.235-2.342 5.76L31.269 72.12c-1.952 1.953-5.118 1.953-7.07 0L3.691 51.613c-1.952-1.953-1.952-5.118 0-7.071l29.434-29.434c1.526-1.525 3.603-2.37 5.76-2.342L56.89 13c3.253.042 5.88 2.669 5.922 5.921zm-7.855 1.933c-2.147-2.148-5.63-2.148-7.778 0-2.148 2.148-2.148 5.63 0 7.778 2.148 2.148 5.63 2.148 7.778 0 2.148-2.148 2.148-5.63 0-7.778z" transform="translate(1 1) translate(9 9.377)"/>
            <path fill="#FFF" fill-rule="nonzero" d="M24.7 34.36c1.74-1.74 3.499-2.71 5.279-2.911 1.78-.201 3.432.461 4.958 1.987 1.525 1.525 2.17 3.161 1.937 4.908-.235 1.746-1.222 3.489-2.961 5.229l-2.288 2.288 1.324 1.325 5.576-5.576c.39-.39 1.024-.39 1.414 0l1.095 1.095c.39.39.39 1.024 0 1.414l-5.577 5.576 2.009 2.007c.134.134.204.298.21.492.007.194-.063.364-.21.512l-2.89 2.89c-.135.134-.302.2-.503.2-.2 0-.368-.066-.501-.2l-2.009-2.007-1.66 1.661c-.39.39-1.024.39-1.414 0l-1.095-1.095c-.39-.39-.39-1.023 0-1.414l1.66-1.66L19.04 41.063c-.147-.148-.224-.318-.23-.512-.008-.194.063-.365.21-.512l5.68-5.68zm2.79 2.99l-2.249 2.248 3.453 3.453 2.248-2.248c.549-.55.836-1.124.863-1.727.027-.602-.24-1.184-.803-1.746-.522-.522-1.087-.8-1.696-.833-.609-.033-1.214.25-1.816.853z" transform="translate(1 1) translate(9 9.377)"/>
            <path d="M54.957 20.854c-4.249.279-5.91 2.065-4.984 5.358 1.389 4.939 10.285 4.34 12.475 2.708 2.19-1.632 10.218-4.236 15.142 2.23 4.924 6.468 10.038 2.231 11.958 0 1.92-2.23 3.549-11.809-26.677-11.809" transform="translate(1 1) translate(9 9.377)"/>
        </g>
        <path stroke-linecap="round" d="M74.584 56.314h0l-2.8 2.8m-3.693 3.693L45.168 85.731m-16.89.133h0l-3.012-3.011m-2.585-2.585L9.558 67.144" transform="translate(1 1)"/>
        <g fill="#FFF">
            <path d="M33 0c4.418 0 8 3.582 8 8v20c0 4.417-3.579 7.997-7.995 8l-1.13 5.753c-.085.43-.308.82-.635 1.11-.826.733-2.09.658-2.823-.168-2.454-2.763-4.37-4.995-5.75-6.695H8c-4.418 0-8-3.582-8-8V8c0-4.418 3.582-8 8-8h25z" transform="translate(1 1)"/>
            <path d="M12.25 7c.552 0 1 .448 1 1v19c0 .552-.448 1-1 1H9c-.552 0-1-.448-1-1V8c0-.552.448-1 1-1h3.25zm6.825 5.25c.552 0 1 .448 1 1V27c0 .552-.448 1-1 1h-3.25c-.552 0-1-.448-1-1V13.25c0-.552.448-1 1-1h3.25zM25.9 17.5c.552 0 1 .448 1 1V27c0 .552-.448 1-1 1h-3.25c-.552 0-1-.448-1-1v-8.5c0-.552.448-1 1-1h3.25zm6.825 5.25c.552 0 1 .448 1 1V27c0 .552-.448 1-1 1h-3.25c-.552 0-1-.448-1-1v-3.25c0-.552.448-1 1-1h3.25z" transform="translate(1 1)"/>
        </g>
    </g>
</svg>
