<svg xmlns="http://www.w3.org/2000/svg" width="105" height="107" viewBox="0 0 105 107">
    <g fill="none" fill-rule="evenodd" transform="translate(1 1)">
        <path fill="#FFF" stroke="currentColor" d="M46 0v4h-4.5v16h-4V4H4v32h33.5v-3h4v7H4v46h82V4H66V0h24v90H0V0h46z"/>
        <path stroke="currentColor" stroke-linecap="square" d="M27.5 86.5v3M62.5 86.5v3"/>
        <g stroke="currentColor" transform="translate(7 50)">
            <rect width="34" height="26" fill="#FFF" rx="3"/>
            <path stroke-linecap="square" d="M12.5 25.5V.5"/>
            <rect width="7" height="9" x="2" y="3" fill="#FFF" rx="2"/>
            <rect width="7" height="9" x="2" y="14" fill="#FFF" rx="2"/>
        </g>
        <rect width="8" height="6" x="7" y="78" fill="#FFF" stroke="currentColor" rx="2"/>
        <rect width="8" height="6" x="7" y="42" fill="#FFF" stroke="currentColor" rx="2"/>
        <rect width="8" height="33" x="76" y="42" fill="#FFF" stroke="currentColor" rx="2"/>
        <rect width="5" height="11" x="69" y="53" fill="#FFF" stroke="currentColor" rx="2"/>
        <path stroke="currentColor" stroke-linecap="round" d="M81.5 46.5v24"/>
        <rect width="17" height="19" x="67" y="6" stroke="currentColor" stroke-linecap="square" rx="2"/>
        <path stroke="currentColor" stroke-linecap="square" d="M17 4.5v31"/>
        <rect width="9" height="26" x="6" y="7" stroke="currentColor" stroke-linecap="square" rx="2"/>
        <path stroke="currentColor" stroke-linecap="square" d="M20.5 4h17v10h-15c-1.105 0-2-.895-2-2V4h0z"/>
        <rect width="12" height="6" x="23" y="6" stroke="currentColor" stroke-linecap="square" rx="2"/>
        <circle cx="29" cy="8.5" r="1" fill="currentColor"/>
        <circle cx="10.5" cy="10.5" r="1" fill="currentColor"/>
        <path stroke="currentColor" stroke-linecap="square" d="M70.5 6.5v18M46.5 1.5h19"/>
        <g stroke="currentColor" stroke-linecap="round">
            <path stroke-dasharray="0 3" d="M4.5 4.5v31" transform="translate(95 26)"/>
            <path stroke-linejoin="round" d="M2 7L2 2 2 2 7 2" transform="translate(95 26) rotate(45 4.5 4.5)"/>
            <path stroke-linejoin="round" d="M2 37L2 32 2 32 7 32" transform="translate(95 26) scale(1 -1) rotate(45 87.79 0)"/>
        </g>
        <g stroke="currentColor" stroke-linecap="round">
            <path stroke-dasharray="0 3" d="M4.5 4.5v31" transform="rotate(90 -16 81)"/>
            <path stroke-linejoin="round" d="M2 7L2 2 2 2 7 2" transform="rotate(90 -16 81) rotate(45 4.5 4.5)"/>
            <path stroke-linejoin="round" d="M2 37L2 32 2 32 7 32" transform="rotate(90 -16 81) scale(1 -1) rotate(45 87.79 0)"/>
        </g>
    </g>
</svg>
