<svg xmlns="http://www.w3.org/2000/svg" width="95" height="93" viewBox="0 0 95 93">
    <g fill="none" fill-rule="evenodd" stroke="currentColor" transform="translate(1)">
        <path fill="#FFF" d="M26 11h41c1.105 0 2 .895 2 2v72h0-45V13c0-1.105.895-2 2-2zM2 39h22v46H0V41c0-1.105.895-2 2-2z"/>
        <rect width="7" height="9" x="28" y="16" fill="#FFF" rx="1"/>
        <rect width="7" height="9" x="38" y="16" fill="#FFF" rx="1"/>
        <rect width="7" height="9" x="4" y="43" fill="#FFF" rx="1"/>
        <rect width="7" height="9" x="14" y="43" fill="#FFF" rx="1"/>
        <rect width="7" height="9" x="4" y="56" fill="#FFF" rx="1"/>
        <rect width="7" height="9" x="14" y="56" fill="#FFF" rx="1"/>
        <rect width="7" height="9" x="4" y="69" fill="#FFF" rx="1"/>
        <rect width="7" height="9" x="14" y="69" fill="#FFF" rx="1"/>
        <path fill="#FFF" d="M91 52H69h0v33h24V54c0-1.105-.895-2-2-2z"/>
        <rect width="7" height="9" x="72" y="56" fill="#FFF" rx="1"/>
        <rect width="7" height="9" x="82" y="56" fill="#FFF" rx="1"/>
        <rect width="7" height="9" x="72" y="69" fill="#FFF" rx="1"/>
        <rect width="7" height="9" x="82" y="69" fill="#FFF" rx="1"/>
        <rect width="7" height="9" x="48" y="16" fill="#FFF" rx="1"/>
        <rect width="7" height="9" x="58" y="16" fill="#FFF" rx="1"/>
        <rect width="7" height="9" x="28" y="29" fill="#FFF" rx="1"/>
        <rect width="7" height="9" x="38" y="29" fill="#FFF" rx="1"/>
        <rect width="7" height="9" x="48" y="29" fill="#FFF" rx="1"/>
        <rect width="7" height="9" x="58" y="29" fill="#FFF" rx="1"/>
        <rect width="7" height="9" x="28" y="42" fill="#FFF" rx="1"/>
        <rect width="7" height="9" x="38" y="42" fill="#FFF" rx="1"/>
        <rect width="7" height="9" x="48" y="42" fill="#FFF" rx="1"/>
        <rect width="7" height="9" x="58" y="42" fill="#FFF" rx="1"/>
        <rect width="7" height="9" x="28" y="55" fill="#FFF" rx="1"/>
        <rect width="7" height="9" x="38" y="55" fill="#FFF" rx="1"/>
        <rect width="7" height="9" x="48" y="55" fill="#FFF" rx="1"/>
        <rect width="7" height="9" x="58" y="55" fill="#FFF" rx="1"/>
        <rect width="7" height="9" x="28" y="68" fill="#FFF" rx="1"/>
        <path fill="#FFF" d="M41 68h11c.552 0 1 .448 1 1v16h0-13V69c0-.552.448-1 1-1z"/>
        <path stroke-linecap="square" d="M46.5 68.5v16"/>
        <path stroke-linecap="round" d="M44.5 75.5v2M48.5 75.5v2"/>
        <rect width="7" height="9" x="58" y="68" fill="#FFF" rx="1"/>
        <g fill="#FFF" stroke-linejoin="round">
            <path d="M3.778 5.667L1.557 6.834 1.981 4.361.185 2.61 2.668 2.25 3.778 0 4.888 2.25 7.371 2.61 5.574 4.361 5.998 6.834zM12.844 5.667L10.624 6.834 11.048 4.361 9.252 2.61 11.734 2.25 12.844 0 13.955 2.25 16.437 2.61 14.641 4.361 15.065 6.834zM21.911 5.667L19.691 6.834 20.115 4.361 18.318 2.61 20.801 2.25 21.911 0 23.021 2.25 25.504 2.61 23.708 4.361 24.132 6.834zM30.622 5.667L28.402 6.834 28.826 4.361 27.029 2.61 29.512 2.25 30.622 0 31.732 2.25 34.215 2.61 32.419 4.361 32.843 6.834zM39.689 5.667L37.468 6.834 37.892 4.361 36.096 2.61 38.579 2.25 39.689 0 40.799 2.25 43.282 2.61 41.485 4.361 41.909 6.834z" transform="translate(25)"/>
        </g>
        <path stroke-linecap="round" d="M6.5 88.5h80M27 92.5h39"/>
    </g>
</svg>
