<svg xmlns="http://www.w3.org/2000/svg" width="98" height="98" viewBox="0 0 98 98">
    <g fill="none" stroke="currentColor">
        <g>
            <path d="M22.999 58c-.254 0-.507-.048-.747-.145-4.928-1.99-13.984-6.937-19.27-17.7C-.265 33.55-.12 27.162.098 17.492c.06-2.643.128-5.639.128-8.922 0-.877.567-1.654 1.4-1.918L22.398.093c.39-.124.81-.124 1.2 0l20.774 6.56c.834.263 1.401 1.04 1.401 1.917 0 3.284.068 6.278.128 8.92.219 9.672.364 16.06-2.883 22.664-5.287 10.767-14.346 15.711-19.274 17.7-.238.097-.492.146-.745.146z" transform="translate(1 1) translate(25)"/>
            <path stroke-linecap="round" d="M38.451 41.531c-4.619 7.283-11.206 10.82-14.982 12.344m19.1-34.797c.026 1.114.05 2.177.066 3.197m.02 2.473c-.011 5.381-.458 9.572-2.57 13.868" transform="translate(1 1) translate(25)"/>
            <path d="M18.18 26.819c-1.366-1.367-3.582-1.367-4.949 0s-1.367 3.583 0 4.95l5.96 5.96c1.368 1.367 3.584 1.367 4.95 0l11.314-11.313c1.367-1.367 1.367-3.583 0-4.95s-3.583-1.367-4.95 0l-8.838 8.839-3.486-3.486z" transform="translate(1 1) translate(25)"/>
        </g>
        <g stroke-linejoin="round">
            <path d="M16.913 7.01c3.6-1.6 10.5-5.1 22.7-1.4 1.3.4 3.3.7 4.6.7h0l18.9.2c2.4-.2 4.6 1.6 4.9 4.2.2 2.6-1.7 4.8-4 5.1h0l-21.3 2.1c-.7.1-1.2.7-1.1 1.4.1.6.7 1 1.3 1h.822c.626-.01 14.5-.25 24.078-2.4 1.8-.4 3.4-1.1 4.9-2.1.3-.1.6-.3.8-.5 3.4-2.4 8.5-5.5 12.2-7.4 1.1-.5 4.9-2.6 6.7-2.5 2.6.2 3.6 2.3 3.5 4.2 0 1.6-1 3-2.3 3.8h0l-27.1 16.4-1 .6c-3.5 1.9-7.2 2.4-11.2 2h0l-35.8-1.6c-.6 1.5-2 2.6-3.7 2.7h0l-8.2.6c-2.8.2-5.1-1.9-5.3-4.6h0l-1.3-18.8c-.2-2.8 1.9-5.1 4.6-5.3h0l8.2-.6c1.7-.1 3.3.8 4.1 2.2zm-7.3 16.9c-1.6 0-2.8 1.3-2.8 2.8 0 1.6 1.3 2.8 2.8 2.8 1.5 0 2.8-1.2 2.8-2.8 0-1.6-1.2-2.8-2.8-2.8z" transform="translate(1 1) translate(0 62)"/>
            <path d="M72.313 11.91v-1.6c-.1-.7-.2-1.3-.4-1.9v-.1c2.9-1.6 8.5-4.4 11.5-5.7 1.5-.6 3-.6 4.4.4-1.1.4-2.1.9-3.1 1.4-3.2 1.7-8.9 4.9-11.6 6.9-.3.2-.6.4-.8.6zM68.113 3.61c1.9-1 6.1-2.4 7.9-3.2 1.5-.6 3-.6 4.4.4-2.2 1-6.5 2.6-8.5 3.7l-1.4.8c-.1.1-.2.2-.4.3-.5-.9-1.2-1.5-2-2z" transform="translate(1 1) translate(0 62)"/>
        </g>
    </g>
</svg>
