<svg xmlns="http://www.w3.org/2000/svg" width="24" height="84" viewBox="0 0 24 84">
    <g fill="none" stroke="#65AFC3">
        <path d="M2.072 15.927l5.803-.446c.331-.034.63-.274.663-.617.232-1.338.696-4.7.53-7.376C8.836 4.092 8.306-.23 5.156.01 2.039.25-.216 5.773.016 9.375c.2 2.676.929 5.043 1.294 6.038.132.343.43.549.762.514zM9.267 18.778c-.07-.368-.416-.601-.797-.568l-5.887.4c-.381.034-.693.335-.727.702l-.139 1.604c-.173 2.338 1.87 4.275 4.26 4.108 2.424-.167 4.121-2.371 3.602-4.643l-.312-1.603zM17.04 7.406c-3.146-.24-3.676 4.082-3.908 7.479-.199 2.676.298 6.072.53 7.375.066.343.331.584.662.618l5.796.446c.331.034.63-.172.762-.515.364-1.029 1.093-3.362 1.291-6.037.232-3.603-2.02-9.126-5.133-9.366zM19.641 26.007l-5.887-.4c-.381-.034-.727.233-.797.567l-.346 1.604c-.52 2.305 1.178 4.476 3.602 4.643 2.424.167 4.432-1.77 4.26-4.109l-.105-1.637c-.034-.367-.346-.668-.727-.668z" transform="translate(1 -6)"/>
        <g>
            <path d="M2.072 15.927l5.803-.446c.331-.034.63-.274.663-.617.232-1.338.696-4.7.53-7.376C8.836 4.092 8.306-.23 5.156.01 2.039.25-.216 5.773.016 9.375c.2 2.676.929 5.043 1.294 6.038.132.343.43.549.762.514zM9.267 18.778c-.07-.368-.416-.601-.797-.568l-5.887.4c-.381.034-.693.335-.727.702l-.139 1.604c-.173 2.338 1.87 4.275 4.26 4.108 2.424-.167 4.121-2.371 3.602-4.643l-.312-1.603zM17.04 7.406c-3.146-.24-3.676 4.082-3.908 7.479-.199 2.676.298 6.072.53 7.375.066.343.331.584.662.618l5.796.446c.331.034.63-.172.762-.515.364-1.029 1.093-3.362 1.291-6.037.232-3.603-2.02-9.126-5.133-9.366zM19.641 26.007l-5.887-.4c-.381-.034-.727.233-.797.567l-.346 1.604c-.52 2.305 1.178 4.476 3.602 4.643 2.424.167 4.432-1.77 4.26-4.109l-.105-1.637c-.034-.367-.346-.668-.727-.668z" transform="translate(1 -6) translate(0 33.569)"/>
        </g>
        <g>
            <path d="M2.072 15.927l5.803-.446c.331-.034.63-.274.663-.617.232-1.338.696-4.7.53-7.376C8.836 4.092 8.306-.23 5.156.01 2.039.25-.216 5.773.016 9.375c.2 2.676.929 5.043 1.294 6.038.132.343.43.549.762.514zM9.267 18.778c-.07-.368-.416-.601-.797-.568l-5.887.4c-.381.034-.693.335-.727.702l-.139 1.604c-.173 2.338 1.87 4.275 4.26 4.108 2.424-.167 4.121-2.371 3.602-4.643l-.312-1.603zM17.04 7.406c-3.146-.24-3.676 4.082-3.908 7.479-.199 2.676.298 6.072.53 7.375.066.343.331.584.662.618l5.796.446c.331.034.63-.172.762-.515.364-1.029 1.093-3.362 1.291-6.037.232-3.603-2.02-9.126-5.133-9.366z" transform="translate(1 -6) translate(0 68.569)"/>
        </g>
    </g>
</svg>
