<svg width="24" height="24" viewBox="0 0 24 24" fill="none" xmlns="http://www.w3.org/2000/svg">
<path d="M21 24H3C2.61169 24 2.29688 23.6852 2.29688 23.2969V14.25C2.29688 13.8617 2.61169 13.5469 3 13.5469H21C21.3883 13.5469 21.7031 13.8617 21.7031 14.25V23.2969C21.7031 23.6852 21.3883 24 21 24ZM3.70312 22.5938H20.2969V14.9531H3.70312V22.5938Z" fill="currentColor"/>
<path d="M21.8906 14.9531H2.10938C0.946266 14.9531 0 14.0069 0 12.8438V12.6562C0 11.4931 0.946266 10.5469 2.10938 10.5469H21.8906C23.0537 10.5469 24 11.4931 24 12.6562V12.8438C24 14.0069 23.0537 14.9531 21.8906 14.9531ZM2.10938 11.9531C1.72167 11.9531 1.40625 12.2685 1.40625 12.6562V12.8438C1.40625 13.2315 1.72167 13.5469 2.10938 13.5469H21.8906C22.2783 13.5469 22.5938 13.2315 22.5938 12.8438V12.6562C22.5938 12.2685 22.2783 11.9531 21.8906 11.9531H2.10938Z" fill="currentColor"/>
<path d="M10.125 8.95312H1.875C1.48669 8.95312 1.17188 8.63831 1.17188 8.25V2.25C1.17188 1.86169 1.48669 1.54688 1.875 1.54688H10.125C10.5133 1.54688 10.8281 1.86169 10.8281 2.25V8.25C10.8281 8.63831 10.5133 8.95312 10.125 8.95312ZM2.57812 7.54688H9.42188V2.95312H2.57812V7.54688Z" fill="currentColor"/>
<path d="M22.125 11.9531H13.875C13.4867 11.9531 13.1719 11.6383 13.1719 11.25V9.375C13.1719 6.71278 15.3378 4.54688 18 4.54688C20.6622 4.54688 22.8281 6.71278 22.8281 9.375V11.25C22.8281 11.6383 22.5133 11.9531 22.125 11.9531ZM14.5781 10.5469H21.4219V9.375C21.4219 7.48819 19.8868 5.95312 18 5.95312C16.1132 5.95312 14.5781 7.48819 14.5781 9.375V10.5469Z" fill="currentColor"/>
<path d="M6 11.9531C5.61169 11.9531 5.29688 11.6383 5.29688 11.25V8.25C5.29688 7.86169 5.61169 7.54688 6 7.54688C6.38831 7.54688 6.70312 7.86169 6.70312 8.25V11.25C6.70312 11.6383 6.38831 11.9531 6 11.9531Z" fill="currentColor"/>
<path d="M18 5.95312C16.3717 5.95312 15.0469 4.62834 15.0469 3C15.0469 2.21208 15.3516 1.46466 15.9048 0.8955C16.4661 0.318047 17.2102 0 18 0C18.7898 0 19.5339 0.318047 20.0952 0.8955C20.6484 1.46466 20.9531 2.21208 20.9531 3C20.9531 4.62834 19.6283 5.95312 18 5.95312ZM18 1.40625C17.1615 1.40625 16.4531 2.13609 16.4531 3C16.4531 3.85294 17.1471 4.54688 18 4.54688C18.8529 4.54688 19.5469 3.85294 19.5469 3C19.5469 2.13609 18.8385 1.40625 18 1.40625Z" fill="currentColor"/>
</svg>
