<svg xmlns="http://www.w3.org/2000/svg" width="24" height="23" viewBox="0 0 24 23"><g><g><path fill="#4ba43d" d="M7.145 3.525c-.435 0-.725.435-.725.725v3.625H4.97V4.25c0-.435-.29-.725-.725-.725s-.725.435-.725.725v3.625H2.07V4.25c0-.435-.29-.725-.725-.725S.62 3.96.62 4.25v4.785c0 1.305 1.015 2.32 2.175 2.465v10.15c0 .87.58 1.45 1.45 1.45s1.45-.58 1.45-1.45V11.5c1.16-.145 2.175-1.16 2.175-2.465V4.25c0-.29-.29-.725-.725-.725zm2.9 9.425h1.45v8.7c0 .87.58 1.45 1.45 1.45s1.45-.58 1.45-1.45V-.1c-2.465 0-4.35 1.885-4.35 4.35zM20.195 2.8c-2.03 0-3.625 2.175-3.625 4.785-.145 1.74.725 3.335 2.175 4.35v9.715c0 .87.58 1.45 1.45 1.45s1.45-.58 1.45-1.45v-9.715c1.45-1.015 2.32-2.61 2.175-4.35 0-2.61-1.595-4.785-3.625-4.785z"/></g></g></svg>