<svg width="57" height="47" viewBox="0 0 57 47" fill="none" xmlns="http://www.w3.org/2000/svg">
<path d="M41.75 44.4H55V39.1C54.9999 37.4478 54.485 35.8367 53.527 34.4907C52.5689 33.1446 51.2153 32.1305 49.6543 31.5892C48.0933 31.048 46.4024 31.0066 44.8167 31.4707C43.2311 31.9348 41.8294 32.8814 40.8066 34.179M41.75 44.4H15.25M41.75 44.4V39.1C41.75 37.3616 41.4161 35.7001 40.8066 34.179M40.8066 34.179C39.8225 31.7196 38.1242 29.6116 35.9306 28.1267C33.737 26.6418 31.1489 25.8481 28.5 25.8481C25.8511 25.8481 23.263 26.6418 21.0694 28.1267C18.8759 29.6116 17.1775 31.7196 16.1934 34.179M15.25 44.4H2V39.1C2.00012 37.4478 2.51499 35.8367 3.47303 34.4907C4.43108 33.1446 5.78469 32.1305 7.34571 31.5892C8.90674 31.048 10.5976 31.0066 12.1833 31.4707C13.7689 31.9348 15.1706 32.8814 16.1934 34.179M15.25 44.4V39.1C15.25 37.3616 15.5839 35.7001 16.1934 34.179M36.45 9.95C36.45 12.0585 35.6124 14.0806 34.1215 15.5715C32.6306 17.0624 30.6085 17.9 28.5 17.9C26.3915 17.9 24.3694 17.0624 22.8785 15.5715C21.3876 14.0806 20.55 12.0585 20.55 9.95C20.55 7.84153 21.3876 5.81942 22.8785 4.3285C24.3694 2.83759 26.3915 2 28.5 2C30.6085 2 32.6306 2.83759 34.1215 4.3285C35.6124 5.81942 36.45 7.84153 36.45 9.95ZM52.35 17.9C52.35 19.3056 51.7916 20.6537 50.7977 21.6477C49.8037 22.6416 48.4557 23.2 47.05 23.2C45.6444 23.2 44.2963 22.6416 43.3023 21.6477C42.3084 20.6537 41.75 19.3056 41.75 17.9C41.75 16.4944 42.3084 15.1463 43.3023 14.1523C44.2963 13.1584 45.6444 12.6 47.05 12.6C48.4557 12.6 49.8037 13.1584 50.7977 14.1523C51.7916 15.1463 52.35 16.4944 52.35 17.9ZM15.25 17.9C15.25 19.3056 14.6916 20.6537 13.6977 21.6477C12.7037 22.6416 11.3556 23.2 9.95 23.2C8.54435 23.2 7.19628 22.6416 6.20233 21.6477C5.20839 20.6537 4.65 19.3056 4.65 17.9C4.65 16.4944 5.20839 15.1463 6.20233 14.1523C7.19628 13.1584 8.54435 12.6 9.95 12.6C11.3556 12.6 12.7037 13.1584 13.6977 14.1523C14.6916 15.1463 15.25 16.4944 15.25 17.9Z" stroke="#CF884A" stroke-width="3.5" stroke-linecap="round" stroke-linejoin="round"/>
</svg>
