<svg width="24" height="24" viewBox="0 0 24 24" fill="none" xmlns="http://www.w3.org/2000/svg">
<g >
    <path d="M23.9408 8.90508L21.4737 3.28008C21.3615 3.02447 21.1088 2.85938 20.8298 2.85938H9.15244V1.40625C9.54075 1.40625 9.85556 1.09144 9.85556 0.703125C9.85556 0.314812 9.54075 0 9.15244 0C8.72545 0 5.6213 0 4.93369 0C4.54537 0 4.23056 0.314812 4.23056 0.703125C4.23056 1.09144 4.54537 1.40625 4.93369 1.40625V2.85938H3.17025C2.89116 2.85938 2.63845 3.02447 2.52633 3.28008L0.05925 8.90508C0.0195 8.99531 0 9.09567 0 9.1875C0 9.80939 0 22.6927 0 23.2969C0 23.6852 0.314812 24 0.703125 24H23.2969C23.6852 24 24 23.6852 24 23.2969C24 22.6927 24 9.8093 24 9.1875C24 9.0945 23.9802 8.99452 23.9408 8.90508ZM6.33994 1.40625H7.74619V2.85938H6.33994V1.40625ZM3.62967 4.26562C4.61995 4.26562 19.406 4.26562 20.3704 4.26562L22.2208 8.48438H1.77928L3.62967 4.26562ZM22.5938 22.5938H1.40625V21.6094C1.56614 21.6094 22.2478 21.6094 22.5938 21.6094V22.5938ZM10.3594 20.2031V14.635L12 12.9944L13.6406 14.635V20.2031H10.3594ZM22.5938 20.2031H15.0469V14.3438C15.0469 14.1573 14.9728 13.9785 14.8409 13.8466L12.4972 11.5028C12.2226 11.2282 11.7774 11.2282 11.5028 11.5028L9.15905 13.8466C9.02719 13.9785 8.95312 14.1573 8.95312 14.3438V20.2031H1.40625V9.89062H22.5938V20.2031Z" fill="currentColor"/>
    <path d="M20.5781 13.6406H17.0625C16.6742 13.6406 16.3594 13.9554 16.3594 14.3438V18.5625C16.3594 18.9508 16.6742 19.2656 17.0625 19.2656H20.5781C20.9664 19.2656 21.2812 18.9508 21.2812 18.5625V14.3438C21.2812 13.9554 20.9664 13.6406 20.5781 13.6406ZM19.875 17.8594H17.7656V15.0469H19.875V17.8594Z" fill="currentColor"/>
    <path d="M6.9375 13.6406H3.42188C3.03356 13.6406 2.71875 13.9554 2.71875 14.3438V18.5625C2.71875 18.9508 3.03356 19.2656 3.42188 19.2656H6.9375C7.32581 19.2656 7.64062 18.9508 7.64062 18.5625V14.3438C7.64062 13.9554 7.32581 13.6406 6.9375 13.6406ZM6.23438 17.8594H4.125V15.0469H6.23438V17.8594Z" fill="currentColor"/>

</g>

</svg>
