<svg width="24" height="24" viewBox="0 0 24 24" fill="none" xmlns="http://www.w3.org/2000/svg">
<path d="M7.76471 11.294V9.88221H11.2941V1.41162H0V9.88221H3.52941V11.294H0V14.8234H24V11.294H7.76471ZM6.35294 11.294H4.94118V9.88221H6.35294V11.294Z" fill="white"/>
<path d="M1.41211 16.2354V24.0001H22.5886V16.2354C21.9315 16.2354 2.31493 16.2354 1.41211 16.2354ZM19.7651 22.5883H4.23564V21.1765H19.7651V22.5883ZM19.7651 19.7648H4.23564V18.353H19.7651V19.7648Z" fill="white"/>
<path d="M17.6468 5.64706C19.2062 5.64706 20.4703 4.38292 20.4703 2.82353C20.4703 1.26414 19.2062 0 17.6468 0C16.0874 0 14.8232 1.26414 14.8232 2.82353C14.8232 4.38292 16.0874 5.64706 17.6468 5.64706Z" fill="white"/>
<path d="M17.6474 5.64697C15.1624 5.64697 13.1004 7.49092 12.7568 9.88226H22.5379C22.1943 7.49092 20.1323 5.64697 17.6474 5.64697Z" fill="white"/>
</svg>
