<svg xmlns="http://www.w3.org/2000/svg" width="18" height="19" viewBox="0 0 18 19"><g><g><path fill="#cf884a" d="M17.13 17.17c0 1.057-.86 1.917-1.917 1.917H1.797A1.919 1.919 0 0 1-.12 17.17V3.753c0-1.057.86-1.916 1.917-1.916h1.916V-.08H5.63v1.917h5.75V-.08h1.917v1.917h1.916c1.057 0 1.917.86 1.917 1.916zm-11.5-3.833H3.713v1.916H5.63zm0-3.834H3.713v1.917H5.63zm3.833 3.834H7.547v1.916h1.916zm0-3.834H7.547v1.917h1.916zm3.834 3.834H11.38v1.916h1.917zm0-3.834H11.38v1.917h1.917zm1.916-4.791H1.797v1.916h13.416z"/></g></g></svg>