<svg width="24" height="24" viewBox="0 0 24 24" fill="none" xmlns="http://www.w3.org/2000/svg">
<g >
<path d="M23.2969 20.5781H0.703125C0.314812 20.5781 0 20.2633 0 19.875V14.9062C0 13.7431 0.946266 12.7969 2.10938 12.7969H21.8906C23.0537 12.7969 24 13.7431 24 14.9062V19.875C24 20.2633 23.6852 20.5781 23.2969 20.5781ZM1.40625 19.1719H22.5938V14.9062C22.5938 14.5185 22.2783 14.2031 21.8906 14.2031H2.10938C1.72167 14.2031 1.40625 14.5185 1.40625 14.9062V19.1719Z" fill="currentColor"/>
<path d="M3.75 22.4531C3.36169 22.4531 3.04688 22.1383 3.04688 21.75V19.875C3.04688 19.4867 3.36169 19.1719 3.75 19.1719C4.13831 19.1719 4.45312 19.4867 4.45312 19.875V21.75C4.45312 22.1383 4.13831 22.4531 3.75 22.4531Z" fill="currentColor"/>
<path d="M20.25 22.4531C19.8617 22.4531 19.5469 22.1383 19.5469 21.75V19.875C19.5469 19.4867 19.8617 19.1719 20.25 19.1719C20.6383 19.1719 20.9531 19.4867 20.9531 19.875V21.75C20.9531 22.1383 20.6383 22.4531 20.25 22.4531Z" fill="currentColor"/>
<path d="M10.5 14.2031H6C5.61169 14.2031 5.29688 13.8883 5.29688 13.5V9.75C5.29688 9.36169 5.61169 9.04688 6 9.04688H10.5C10.8883 9.04688 11.2031 9.36169 11.2031 9.75V13.5C11.2031 13.8883 10.8883 14.2031 10.5 14.2031ZM6.70312 12.7969H9.79688V10.4531H6.70312V12.7969Z" fill="currentColor"/>
<path d="M18 14.2031H13.5C13.1117 14.2031 12.7969 13.8883 12.7969 13.5V9.75C12.7969 9.36169 13.1117 9.04688 13.5 9.04688H18C18.3883 9.04688 18.7031 9.36169 18.7031 9.75V13.5C18.7031 13.8883 18.3883 14.2031 18 14.2031ZM14.2031 12.7969H17.2969V10.4531H14.2031V12.7969Z" fill="currentColor"/>
<path d="M21.75 14.2031H2.25C1.86169 14.2031 1.54688 13.8883 1.54688 13.5V12C1.54688 9.20789 2.63419 6.58289 4.60852 4.60852C6.58284 2.63414 9.20789 1.54688 12 1.54688C14.7879 1.54688 17.4107 2.63203 19.3853 4.60242C21.3636 6.57656 22.4531 9.20372 22.4531 12V13.5C22.4531 13.8883 22.1383 14.2031 21.75 14.2031ZM2.95312 12.7969H21.0469V12C21.0469 7.01156 16.9885 2.95312 12 2.95312C7.01156 2.95312 2.95312 7.01156 2.95312 12V12.7969Z" fill="currentColor"/>
</g>
</svg>
