<svg width="201" height="59" viewBox="0 0 201 59" fill="none" xmlns="http://www.w3.org/2000/svg">
<path fill-rule="evenodd" clip-rule="evenodd" d="M87.031 16.4158C93.3079 15.5889 93.3079 15.4761 93.3079 15.3539V15.072C93.3079 14.9593 93.3079 14.8747 93.3079 14.8371C93.1481 14.4801 92.8756 14.2076 92.8756 13.8975V13.6908C92.8756 13.4934 93.2233 13.3431 93.2703 13.1364C93.297 13.0347 93.297 12.9279 93.2703 12.8263C93.2959 12.696 93.2959 12.5619 93.2703 12.4316C93.2703 12.4316 93.0636 11.9618 92.9508 11.492C92.8986 11.3836 92.8729 11.2645 92.8756 11.1443C92.8756 10.8624 93.1106 11.1443 93.3079 10.7026C92.2367 10.7026 91.2125 10.7872 90.1506 10.9C88.6096 11.0597 87.1907 11.0597 85.7343 11.2195C84.1087 11.2195 82.6522 11.2195 81.1112 11.2195C79.8896 11.2195 78.8278 11.304 77.6062 11.304H75.1162C74.7685 11.304 74.402 11.1067 74.0543 11.304H74.1671C74.8061 11.4544 75.3135 11.492 76.1028 11.6141C75.9055 11.8114 75.8679 12.0464 75.5108 12.1685C75.4054 12.1898 75.2968 12.1898 75.1913 12.1685C75.0643 12.1951 74.9331 12.1951 74.8061 12.1685H74.4396C74.3268 12.1685 74.2517 12.1685 74.1295 12.1685C74.0074 12.1685 73.9322 12.2813 73.9322 12.3283C73.9322 12.3752 74.1671 12.5256 74.3268 12.6383C74.3986 12.7576 74.4375 12.8938 74.4396 13.033C74.4396 13.1551 74.4396 13.3149 74.3644 13.5874C74.314 13.9903 74.2227 14.387 74.0919 14.7714V14.9311V15.1284C74.0527 15.2829 74.0245 15.4399 74.0074 15.5983L74.0919 15.9177H74.4396C76.6102 16.0775 78.6681 16.2278 80.7165 16.2278H82.1354C82.1354 18.483 82.0226 20.7758 82.0226 23.0967C82.0226 25.1076 82.0978 27.0902 82.1354 29.1387C82.1354 31.422 82.2575 33.7524 82.3797 36.0827C82.3797 36.0827 82.5394 36.0827 82.6522 36.0827H82.8871C82.9992 36.0831 83.1094 36.0539 83.2066 35.9982C83.5167 35.8008 83.8362 35.4908 84.1932 35.4908C84.5503 35.4908 84.7006 35.8384 84.8604 35.9606C85.0201 36.0827 85.0201 35.9606 85.1423 35.9606C85.3016 35.9569 85.4596 35.9317 85.6121 35.8854C85.7343 35.8854 86.0443 35.4156 86.486 35.4156C86.9276 35.4156 86.8712 35.8008 87.2753 35.8854C87.2753 34.6639 87.1907 33.5927 87.078 32.4933V32.2959C86.9639 31.4174 86.9106 30.532 86.9182 29.6461V21.6308C86.9975 21.3596 87.023 21.0755 86.9934 20.7945V17.7313C86.9934 17.299 86.9934 16.8668 86.9934 16.4345L87.031 16.4158ZM99.2465 11.445H98.974C98.7489 11.4637 98.5226 11.4637 98.2975 11.445C97.8638 11.4072 97.4271 11.4325 97.0007 11.5201C96.7658 11.5201 96.6437 11.5953 96.6437 11.6329C96.6437 11.6705 97.1511 11.7926 97.433 11.9524C97.7149 12.1121 97.7055 12.1873 97.7055 12.3095V12.6289C97.7055 12.6289 97.5927 12.7041 97.3108 12.7041H97.1135C96.6061 12.7041 96.0517 12.5068 95.4597 12.5068C95.2561 12.5065 95.0546 12.5481 94.8677 12.6289V35.7445C94.8677 35.7445 94.8677 35.7445 94.9805 35.7445H95.3375L95.6194 35.6693C95.8919 35.472 96.1362 35.1525 96.4463 35.1525H96.6437C96.8034 35.1525 97.0383 35.5095 97.1887 35.6223C97.2791 35.6592 97.3738 35.6844 97.4706 35.6975C97.6165 35.6846 97.7611 35.6594 97.9028 35.6223C98.263 35.4039 98.6676 35.2691 99.0868 35.2277C99.3687 35.2277 99.2841 35.5471 99.5284 35.6599C99.5296 35.0518 99.4761 34.4449 99.3687 33.8464V28.5279L102.047 28.4152L102.169 28.8474C102.439 29.8864 102.794 30.9015 103.231 31.8825C103.747 33.104 104.255 34.1752 104.884 35.3968C105.636 36.7781 106.313 37.9621 107.064 39.2212C107.262 39.0614 107.45 39.0614 107.732 38.8735C108.013 38.6856 108.126 38.3191 108.558 38.197H108.681C108.793 38.197 108.991 38.2721 109.15 38.2721C109.372 38.2235 109.576 38.1165 109.742 37.962C109.94 37.7553 110.569 37.1633 111.002 37.1633C111.059 37.1614 111.115 37.1753 111.165 37.2035C111.215 37.2317 111.256 37.2731 111.283 37.3231L110.062 35.4438C109.513 34.5384 109.026 33.5966 108.605 32.6248C108.126 31.5536 107.807 30.5294 107.375 29.5427C107.102 28.8662 106.82 28.1239 106.548 27.3345C107.04 27.1705 107.515 26.9597 107.967 26.705C108.729 26.3285 109.429 25.8373 110.043 25.2485C110.727 24.7954 111.294 24.1868 111.697 23.4726C112.164 22.7458 112.536 21.9628 112.806 21.1422V20.9825L113.078 20.0428C113.078 19.6106 113.153 19.2535 113.153 18.8213V18.389C110.832 12.0745 105.458 10.6181 99.425 10.6181C98.635 10.6019 97.8446 10.627 97.0571 10.6933C97.2168 11.1725 100.017 11.0503 100.017 11.2476C100.017 11.445 99.5472 11.445 99.2277 11.445H99.2465ZM108.399 18.5864V18.9434C108.392 19.1955 108.367 19.4467 108.324 19.6951C108.302 19.7559 108.302 19.8223 108.324 19.8831V20.0052V20.2026C108.307 20.2833 108.282 20.362 108.248 20.4375C107.919 21.3511 107.294 22.1284 106.472 22.6457C105.896 22.9668 105.303 23.2585 104.697 23.5196C103.998 23.738 103.285 23.9076 102.563 24.027C101.756 24.158 100.939 24.2271 100.12 24.2337H99.6036C99.6506 23.1625 99.6881 22.0161 99.6881 20.9167V15.4667L99.6036 14.7244C100.16 14.7273 100.715 14.765 101.267 14.8371C102.356 14.9049 103.437 15.0653 104.499 15.3164C104.98 15.4296 105.454 15.5708 105.918 15.7392C106.36 15.8555 106.775 16.0566 107.14 16.3312C107.443 16.4949 107.724 16.697 107.976 16.9326C108.178 17.1411 108.327 17.396 108.408 17.6749C108.487 17.9818 108.525 18.2977 108.521 18.6145L108.399 18.5864ZM116.386 12.0933C116.386 15.5701 116.198 19.075 116.076 22.5893C115.954 24.7975 115.954 26.8929 115.841 29.1011C115.719 31.6288 115.606 34.1564 115.568 36.7969C115.878 36.6371 116.198 36.8814 116.508 36.6841C116.94 36.4022 117.297 36.0921 117.73 36.2049C118.002 36.2049 118.162 36.6371 118.368 36.7969C118.635 36.8765 118.919 36.8765 119.186 36.7969C119.308 36.7969 120.492 36.0076 121.065 36.9566C121.065 35.5753 121.065 34.3444 121.065 32.9631C121.065 31.0838 121.187 29.1481 121.375 27.25C121.498 25.1545 121.695 23.1437 121.732 21.0952C121.77 19.0468 121.732 17.2239 121.732 15.213C121.732 13.9163 121.573 12.7323 121.573 11.4544C121.14 12.0839 121.366 13.0706 121.328 14.2733C121.056 14.0008 120.821 13.9633 120.661 13.484C120.502 13.0048 120.736 12.1121 120.586 11.6047C120.436 11.0973 119.318 12.1215 119.007 12.1215C118.181 12.1215 117.222 11.6423 116.395 11.9994L116.386 12.0933ZM133.751 23.1249C128.113 22.6926 123.574 22.8054 123.537 23.482V23.7545C123.517 23.8442 123.517 23.9372 123.537 24.027C123.721 24.3633 123.857 24.7239 123.941 25.0982L123.894 25.3331C123.894 25.5304 123.499 25.6902 123.424 25.8875C123.356 25.9935 123.326 26.1194 123.339 26.2445V26.6392C123.339 26.6392 123.856 27.3815 123.339 27.5037C124.486 27.5037 125.585 27.5789 126.807 27.5789C128.47 27.5789 132.022 27.701 133.675 27.701H136.795C137.143 27.701 137.547 27.9735 137.895 27.8232H137.819C137.137 27.5926 136.436 27.4228 135.724 27.3158C136.006 27.0714 136.006 26.8365 136.4 26.7238C136.515 26.7002 136.633 26.7002 136.748 26.7238C136.992 26.7238 137.105 26.7238 137.18 26.8365H137.622H137.97C138.092 26.8365 138.176 26.6862 138.176 26.6862C138.162 26.5826 138.126 26.4831 138.071 26.3941C138.016 26.3051 137.943 26.2285 137.857 26.1694V25.8217L138.092 24.6283C138.157 24.4601 138.211 24.2874 138.252 24.1115L138.176 23.7639L137.829 23.6417C135.376 23.2752 136.889 23.2001 133.76 23.1249H133.751ZM140.385 12.037L140.309 12.1497C140.309 12.9766 140.187 13.8881 140.065 14.7995C139.943 15.711 139.793 16.6789 139.67 17.5621C139.548 18.4454 139.398 19.4414 139.276 20.4751C139.154 21.5087 139.078 22.4953 139.041 23.482V25.2485C139.021 25.6147 139.021 25.9817 139.041 26.3479C139.065 27.0132 139.156 27.6743 139.313 28.3212C139.359 28.6213 139.441 28.9147 139.558 29.1951C139.565 29.2732 139.565 29.3518 139.558 29.43L139.642 29.5427V29.7871L139.755 30.022C139.912 30.523 140.11 31.0102 140.347 31.4784C140.588 32.0292 140.877 32.5575 141.212 33.057C141.626 33.6476 142.115 34.1814 142.668 34.6451C143.206 35.086 143.789 35.4702 144.406 35.7914C145.135 36.1204 145.907 36.345 146.699 36.4586C147.059 36.5588 147.427 36.6248 147.798 36.6559H148.353H148.588H148.86C149.619 36.6703 150.377 36.5882 151.115 36.4116C151.516 36.3484 151.912 36.2574 152.299 36.1391C152.714 36.0009 153.112 35.8148 153.483 35.5847C153.892 35.3855 154.263 35.1186 154.583 34.7954C154.961 34.5019 155.296 34.1571 155.579 33.7712C155.814 33.4517 156.049 33.0946 156.284 32.7094C156.518 32.3241 156.641 31.9576 156.763 31.516C156.955 30.8165 157.112 30.1077 157.233 29.3924V28.7252C157.223 28.6472 157.223 28.5683 157.233 28.4903C157.308 28.1254 157.349 27.7542 157.355 27.3815V26.3197L157.233 23.2752L157.355 21.8188V21.2644C157.355 20.6348 157.355 19.9677 157.355 19.2159C157.355 17.8346 157.355 16.4533 157.355 15.072V10.9658C157.327 11.0017 157.291 11.0312 157.251 11.0523C157.21 11.0734 157.165 11.0855 157.12 11.0879C156.998 11.0879 156.96 11.0879 156.847 11.0879C156.79 11.0848 156.733 11.0983 156.683 11.1266C156.633 11.1549 156.592 11.1969 156.565 11.2476C156.255 11.6799 155.973 12.3846 155.626 12.3846C155.551 12.3846 155.513 12.3846 155.475 12.3846C155.194 12.2719 155.156 11.445 154.883 11.2852C154.799 11.1631 154.724 11.1255 154.649 11.1255C154.503 11.1464 154.365 11.2012 154.245 11.2852C154.057 11.2852 153.418 12.2249 152.985 12.2249C152.713 12.2249 152.91 11.5201 152.516 11.0785V11.3604C152.516 13.3713 152.516 15.2224 152.516 17.1581V22.2886L152.44 22.6833V24.2995C152.44 24.8163 152.44 25.3707 152.44 25.8405C152.465 26.7818 152.424 27.7238 152.318 28.6595C152.289 29.0745 152.21 29.4846 152.083 29.881C152.023 30.1931 151.902 30.4902 151.726 30.7549C151.607 30.9902 151.448 31.2032 151.256 31.3845L150.542 31.6945C150.208 31.8457 149.847 31.9287 149.48 31.9389H148.428C148.044 31.9333 147.662 31.8796 147.291 31.7791C146.934 31.6194 146.615 31.5442 146.351 31.3845C146.119 31.241 145.918 31.0525 145.759 30.8301C145.478 30.6327 145.402 30.3602 145.13 30.0032C144.857 29.6461 144.773 29.2514 144.613 28.8192L144.331 28.0675L144.247 27.8326V27.5883C144.005 26.7549 143.888 25.8905 143.899 25.023V24.3089C143.899 23.6323 143.899 22.89 143.974 22.1383L144.284 19.1783C144.482 17.797 144.641 16.5285 144.763 15.1472L144.961 13.1364C145.043 12.4033 145.068 11.6651 145.036 10.9282C144.641 11.1255 144.876 13.0988 144.209 17.2051C143.955 16.7735 143.83 16.2774 143.852 15.7768V15.5513C143.852 15.0345 143.974 14.2827 144.012 13.531C144.012 13.0142 144.124 12.4692 144.124 11.9994C144.15 11.8029 144.15 11.6039 144.124 11.4074L144.049 10.8906C144.049 10.8906 143.974 10.8906 143.937 11.0503C143.878 11.4127 143.783 11.7684 143.655 12.1121C143.532 12.5444 143.335 12.5914 143.185 12.5914C143.034 12.5914 142.865 12.4692 142.743 12.4692C142.311 12.4692 142.038 12.1497 141.597 11.9994C141.415 11.9082 141.217 11.8539 141.014 11.8396C140.911 11.839 140.808 11.8595 140.713 11.8999C140.617 11.9403 140.531 11.9997 140.46 12.0745L140.385 12.037ZM180.395 13.8129C180.395 13.8129 180.235 14.0854 180.076 14.0854C179.916 14.0854 179.766 13.6908 179.766 13.1458V11.5201C179.766 11.3698 179.766 11.2852 179.69 11.2852C179.362 11.2852 176.524 11.7551 176.449 11.7551C176.312 11.7472 176.175 11.7764 176.054 11.8396V12.4692C175.462 13.531 174.992 14.4801 174.391 15.4667C173.968 16.301 173.468 17.0938 172.897 17.8346C172.641 18.2169 172.352 18.5754 172.032 18.9058C171.914 19.0849 171.782 19.2545 171.638 19.4133L171.403 19.6576L171.318 19.7703H171.196C171.196 19.7703 171.196 19.7703 171.196 19.6576L170.999 19.3757C170.773 19.169 170.562 18.946 170.369 18.7085C169.063 17.2427 167.729 15.8895 166.507 14.3673L165.361 13.033L164.928 12.4786C164.928 11.8114 164.806 11.0973 164.806 10.3456C164.459 10.5899 164.647 11.492 164.647 12.0839L164.252 11.5671C164.292 11.8847 164.415 12.1861 164.609 12.441V13.1458C164.412 12.9484 164.13 12.9108 164.017 12.441C163.969 12.2346 163.944 12.0234 163.942 11.8114V11.2946C163.95 11.0573 163.925 10.82 163.867 10.5899C163.867 10.4302 163.782 10.3456 163.744 10.3456C163.707 10.3456 163.585 10.7027 163.425 10.9C163.381 10.9745 163.317 11.0358 163.241 11.0771C163.165 11.1185 163.079 11.1385 162.993 11.1349H162.523C162.146 11.1193 161.773 11.0529 161.414 10.9376H160.822C160.631 10.9348 160.442 10.9733 160.268 11.0503C160.315 14.8089 160.512 18.4736 160.822 22.0631C161.019 24.2713 161.217 26.5264 161.377 28.7346C161.574 31.2623 161.649 33.743 161.771 36.2519C161.835 36.2297 161.905 36.2297 161.968 36.2519H162.279C162.362 36.2339 162.444 36.2087 162.523 36.1767C162.833 35.97 163.152 35.6223 163.463 35.6223C163.547 35.6223 163.585 35.6223 163.622 35.6223C163.82 35.6223 163.979 36.017 164.177 36.1391C164.266 36.1787 164.361 36.2041 164.459 36.2143C164.601 36.1981 164.742 36.173 164.881 36.1391C165.149 35.9588 165.444 35.8224 165.755 35.7351C165.858 35.7143 165.963 35.7143 166.065 35.7351C166.347 35.7351 166.225 36.2143 166.545 36.2143L165.915 26.1506C165.793 24.2713 165.718 22.5611 165.558 20.7006L166.112 21.3771C166.407 21.7085 166.721 22.0223 167.052 22.3168L168.311 23.6605L169.617 25.1545L170.923 26.5734L174.353 23.5383L174.832 22.9839L174.908 22.8712L175.424 22.2792C175.697 21.9597 175.857 21.6872 176.129 21.3395L176.486 30.4918C176.599 33.1792 176.683 35.9418 176.721 38.6198L177.51 38.5446C177.83 38.2721 178.14 37.9151 178.45 37.9151H178.563C178.845 37.9151 178.882 38.3473 179.164 38.507C179.237 38.5381 179.313 38.5633 179.39 38.5822C179.541 38.6052 179.696 38.5788 179.831 38.507C180.091 38.3121 180.384 38.1657 180.696 38.0748C180.813 38.038 180.932 38.0098 181.053 37.9902C181.325 37.9902 181.288 38.4225 181.485 38.5446C181.485 36.8063 180.733 13.8881 180.423 13.7659L180.395 13.8129ZM165.004 13.8881C165.023 13.5752 165.023 13.2613 165.004 12.9484C165.238 13.2303 165.361 13.4652 165.708 13.9445C165.436 13.9445 165.323 13.9445 165.041 13.8599L165.004 13.8881ZM199.696 15.2694L200.165 15.3164C200.283 15.3146 200.396 15.2714 200.485 15.1942C200.523 15.1632 200.55 15.1201 200.56 15.072C200.56 14.9593 200.4 14.9123 200.363 14.762C200.308 14.6508 200.279 14.5287 200.278 14.4049L200.485 12.037C200.493 11.8634 200.477 11.6895 200.438 11.5201C198.737 11.5201 197.046 11.2852 195.43 11.2852C194.358 11.2852 193.381 11.2852 191.521 11.2852H188.843C188.847 11.0447 188.806 10.8054 188.72 10.5805C188.72 10.4114 188.645 10.3362 188.598 10.3362C188.551 10.3362 188.439 10.6933 188.326 10.8906C188.272 10.9782 188.196 11.0497 188.105 11.0976C188.014 11.1456 187.912 11.1682 187.809 11.1631H187.339C186.949 11.1311 186.564 11.0522 186.193 10.9282H185.685C185.45 10.9145 185.216 10.9666 185.009 11.0785V22.0537C185.353 24.288 185.563 26.541 185.638 28.8004C185.798 31.4502 185.958 34.0531 186.23 36.6183C186.32 36.5803 186.415 36.555 186.512 36.5432H186.691C186.788 36.5439 186.883 36.5144 186.963 36.4586C187.32 36.1861 187.518 35.8666 187.903 35.8666C188.288 35.8666 188.373 36.2613 188.58 36.3834C188.58 36.3834 188.692 36.3834 188.814 36.3834C188.973 36.376 189.131 36.3508 189.284 36.3083C189.406 36.3083 189.801 35.7914 190.224 35.7914C190.506 35.7914 190.778 36.1861 190.929 36.2613L190.581 32.202C190.384 30.1911 190.262 28.293 190.262 26.2821L190.186 23.8766C190.759 23.9875 191.342 24.0379 191.925 24.027L194.847 23.8766C194.949 23.8979 195.055 23.8979 195.157 23.8766C195.521 23.8985 195.886 23.8441 196.228 23.7169C196.069 23.4444 195.627 23.5196 195.157 23.482C195.317 23.2846 195.317 23.0497 195.514 22.937C195.539 22.9098 195.57 22.8882 195.604 22.8736C195.638 22.8591 195.675 22.8518 195.712 22.8524H195.984C196.043 22.8433 196.099 22.8172 196.144 22.7772C196.228 22.7772 196.266 22.6926 196.266 22.6551C196.266 22.6175 196.106 22.4577 196.069 22.345C195.962 22.15 195.919 21.9265 195.946 21.706V21.4899C195.946 20.8979 196.069 20.3435 196.069 19.7139C196.098 19.5303 196.098 19.3432 196.069 19.1595H191.37C191.123 19.1088 190.871 19.0804 190.619 19.075H190.064C189.942 18.0132 189.942 17.0641 189.904 16.0023H190.619C191.211 16.0023 191.718 16.0023 192.348 16.0023C194.227 16.0023 195.167 16.162 196.106 16.1996H200.494C200.494 15.8895 199.818 15.9271 199.226 15.805C199.348 15.6452 199.301 15.3727 199.667 15.213L199.696 15.2694Z" fill="#63BC55"/>
<path fill-rule="evenodd" clip-rule="evenodd" d="M97.0007 46.8606C97.0289 47.1705 96.9934 47.4829 96.8964 47.7786C96.7995 48.0743 96.6431 48.347 96.4369 48.5801C95.92 48.9772 95.2725 49.1651 94.6234 49.1063H93.5992V51.3239H92.7253V44.7463H94.661C95.2983 44.6894 95.9342 44.8702 96.4463 45.2537C96.6454 45.4645 96.7976 45.7149 96.8932 45.9885C96.9887 46.2622 97.0254 46.553 97.0007 46.8418V46.8606ZM96.0611 46.8606C96.0788 46.5163 95.9607 46.1789 95.7322 45.9209C95.3976 45.6721 94.9817 45.5581 94.567 45.6014H93.6273V48.3546H94.473C94.8172 48.3727 95.1617 48.3248 95.4879 48.2137C95.6949 48.1365 95.8636 47.9813 95.9577 47.7814C96.0646 47.5096 96.1126 47.2181 96.0986 46.9263L96.0611 46.8606ZM101.586 51.3051L103.832 44.7275H104.941L107.187 51.3051H106.247L105.721 49.6795H103.061L102.498 51.3803L101.586 51.3051ZM103.306 48.8056H105.439L104.368 45.6108L103.306 48.8056ZM115.897 51.3051L114.215 48.6271H113.088V51.3051H112.204V44.7275H114.253C114.87 44.6703 115.488 44.8298 116.001 45.1786C116.189 45.3549 116.335 45.5717 116.428 45.8125C116.521 46.0533 116.558 46.3121 116.536 46.5693C116.559 47.0187 116.444 47.4645 116.207 47.8472C115.951 48.1856 115.574 48.4114 115.155 48.4768L116.931 51.2957L115.897 51.3051ZM115.615 46.6069C115.644 46.4352 115.629 46.2591 115.571 46.0948C115.514 45.9306 115.416 45.7835 115.286 45.6672C114.969 45.4807 114.601 45.3955 114.234 45.4229H113.088V47.7532H114.178C114.473 47.7638 114.768 47.7257 115.051 47.6405C115.241 47.5806 115.399 47.4491 115.493 47.274C115.595 47.0504 115.64 46.8051 115.625 46.5599L115.615 46.6069ZM125.717 51.3051L123.452 48.3922L122.832 49.0969V51.3051H121.949V44.7275H122.832V47.9506L125.651 44.7275H126.741L124.025 47.8002L126.844 51.3427L125.717 51.3051ZM142.208 51.3051V48.364H139.229V51.3615H138.355V44.7839H139.229V47.5465H142.217V44.7839H143.1V51.3615L142.208 51.3051ZM153.737 48.0257C153.814 48.9437 153.579 49.8606 153.07 50.6286C152.808 50.8942 152.495 51.1051 152.151 51.2491C151.807 51.393 151.437 51.4672 151.064 51.4672C150.691 51.4672 150.321 51.393 149.977 51.2491C149.632 51.1051 149.32 50.8942 149.058 50.6286C148.56 49.8629 148.329 48.9548 148.4 48.0445C148.333 47.1389 148.561 46.2359 149.048 45.4699C149.311 45.2014 149.624 44.988 149.97 44.8424C150.317 44.6967 150.688 44.6217 151.064 44.6217C151.439 44.6217 151.811 44.6967 152.157 44.8424C152.503 44.988 152.817 45.2014 153.079 45.4699C153.579 46.2378 153.811 47.1499 153.737 48.0633V48.0257ZM152.797 48.0257C152.845 47.3334 152.702 46.6412 152.384 46.0243C152.222 45.8241 152.017 45.6626 151.785 45.5518C151.552 45.4409 151.298 45.3833 151.04 45.3833C150.783 45.3833 150.528 45.4409 150.296 45.5518C150.063 45.6626 149.859 45.8241 149.697 46.0243C149.427 46.657 149.288 47.3378 149.288 48.0257C149.288 48.7136 149.427 49.3944 149.697 50.0272C149.858 50.2255 150.061 50.3854 150.292 50.4953C150.523 50.6051 150.775 50.6621 151.031 50.6621C151.287 50.6621 151.539 50.6051 151.77 50.4953C152.001 50.3854 152.204 50.2255 152.365 50.0272C152.707 49.4371 152.88 48.764 152.863 48.0821L152.797 48.0257ZM161.405 45.5356V51.3051H160.568V45.5356H158.398V44.7463H163.622V45.5356H161.405ZM168.527 51.3051V44.7275H172.596V45.5168H169.467V47.3962H172.145V48.1949H169.467V50.45H172.596V51.2487L168.527 51.3051ZM177.924 51.3051V44.7275H178.798V50.4876H181.767V51.2863L177.924 51.3051Z" fill="#FFCD4E"/>
<path fill-rule="evenodd" clip-rule="evenodd" d="M21.9316 15.0343C21.349 13.8785 20.9167 12.8449 20.9167 12.8449L21.8564 12.9859C21.8564 12.9859 20.9167 11.4354 20.4751 10.6461C20.0335 9.85682 18.9716 7.09424 18.9716 7.09424C18.9716 7.09424 17.8723 10.336 17.3367 11.5106C16.801 12.6852 15.213 15.1659 15.213 15.1659L16.1527 14.9592C16.0129 15.0847 15.9063 15.2428 15.8426 15.4196C15.7862 15.5323 14.7996 16.8385 14.7996 16.8385L15.7392 16.6223C15.5902 17.3386 15.3436 18.031 15.0063 18.6802C14.2924 20.1882 13.4696 21.6423 12.5444 23.0308L14.311 22.7489C14.158 23.5993 13.8726 24.4205 13.4653 25.1826C12.2343 27.5411 11.0598 28.0955 11.0598 28.0955L12.6666 27.8794C12.2328 29.4582 11.6767 31.0007 11.0034 32.4931C10.2537 34.075 9.35039 35.5794 8.30656 36.9847L11.6705 36.3175C11.6705 36.3175 11.1255 38.0183 10.496 39.5123C9.91697 40.8981 9.00715 42.1209 7.84613 43.0736L11.1161 42.3971L9.61268 43.675L14.1606 42.6696C16.1339 39.1459 16.4534 38.5069 16.4534 38.5069L14.4143 38.817L17.3085 35.0584L14.4895 35.4624L18.0414 29.6366C19.0622 27.9833 19.9033 26.2255 20.5503 24.3933L18.0414 25.0229C18.0414 25.0229 19.4979 22.6737 19.9207 22.0629C20.4943 21.1047 20.9907 20.1024 21.4054 19.0654L18.5864 19.8923C18.5864 19.8923 20.7476 16.6975 21.4054 15.6075L21.753 15.0437L21.9316 15.0343Z" fill="#63BC55"/>
<path fill-rule="evenodd" clip-rule="evenodd" d="M50.8633 40.7715C50.5814 40.4238 49.1437 38.4035 49.1437 38.4035L51.5023 38.7136C50.1997 37.6601 49.09 36.3884 48.2229 34.955C46.8885 32.728 46.6724 32.324 46.6724 32.324L47.941 32.4837L46.0616 30.1815L47.8 30.3883L45.4885 26.8176C44.8347 25.8167 44.2898 24.7488 43.8629 23.6321L45.3193 24.2053C45.3193 24.2053 44.4924 22.5515 44.2105 22.1757C43.8468 21.5758 43.5326 20.9473 43.2709 20.2964L45.0186 20.7662C45.0186 20.7662 43.6185 18.8117 43.1393 18.154C42.4061 16.9827 41.7501 15.7648 41.1754 14.5081L42.0117 14.6208C42.0117 14.6208 41.0721 13.2583 40.7056 12.5536C40.3391 11.8489 39.2773 9.40576 39.2773 9.40576C39.2773 9.40576 38.3377 12.3563 37.9336 13.4275C37.5296 14.4987 36.1295 16.7539 36.1295 16.7539L36.9846 16.5377C36.8604 16.6525 36.7695 16.7985 36.7215 16.9606C36.7215 17.0452 36.1577 17.7875 35.9322 18.107C35.9285 18.1445 35.9285 18.1822 35.9322 18.2197L36.6275 18.0412C36.7004 18.2137 36.7379 18.399 36.7379 18.5862C36.7379 18.7734 36.7004 18.9587 36.6275 19.1312C37.9712 21.5461 39.5592 23.7731 39.5592 23.7731L36.7403 23.3221C37.1315 24.563 37.6446 25.7622 38.2719 26.9021C40.1512 30.2567 42.0963 31.2621 42.0963 31.2621L39.1646 30.9051C39.8368 33.0894 40.682 35.2166 41.6923 37.2665C42.6936 39.0742 43.8373 40.7992 45.1126 42.4252L46.2214 42.679L45.0092 41.3446C45.0092 41.3446 47.3866 41.9178 48.1665 41.993C49.1061 42.0682 51.9251 41.993 51.9251 41.993C51.5417 41.6478 51.1953 41.2636 50.8915 40.8466L50.8633 40.7715Z" fill="#63BC55"/>
<path fill-rule="evenodd" clip-rule="evenodd" d="M32.0891 19.5166H32.2488L32.1924 19.4038L32.0891 19.5542V19.5166Z" fill="#63BC55"/>
<path fill-rule="evenodd" clip-rule="evenodd" d="M55.7684 30.3696C55.5711 30.1159 54.5751 28.6219 54.5751 28.6219L56.2664 28.9038C55.3478 28.1228 54.572 27.188 53.9737 26.1412C53.034 24.5062 52.9119 24.2149 52.9119 24.2149L53.8515 24.3464L52.5548 22.6551L53.8045 22.8336L52.2071 20.212C51.7394 19.4703 51.355 18.6794 51.0608 17.8534L52.1789 18.1353C52.1789 18.1353 51.5306 17.0829 51.3332 16.801C51.0749 16.3719 50.8517 15.9225 50.6661 15.4573L51.9158 15.8332C51.9158 15.8332 50.9762 14.3955 50.6379 13.9539C50.1284 13.0935 49.6794 12.1986 49.2942 11.2758L49.8862 11.3604C49.8862 11.3604 49.2754 10.3644 48.9465 9.84757C48.6176 9.33076 48.0069 7.55481 48.0069 7.55481C48.0069 7.55481 47.3115 9.66903 46.9639 10.4208C46.6162 11.1725 45.5919 12.7887 45.5919 12.7887L46.2121 12.6477C46.126 12.733 46.0588 12.8355 46.0148 12.9484C46.0148 13.0236 45.3382 13.8881 45.3382 13.8881L45.9678 13.7471C45.8679 14.1949 45.7099 14.6276 45.498 15.0345C45.0393 16.0122 44.5085 16.9545 43.91 17.8534L45.0563 17.6655C44.9556 18.1987 44.7783 18.7146 44.5301 19.1971L44.6523 19.4133C45.0845 20.0804 46.4282 22.0725 46.4282 22.0725L44.6993 21.6121C44.9619 22.2625 45.2761 22.891 45.6389 23.4914C45.9114 23.8766 46.8135 25.3707 46.8135 25.3707L45.2631 24.976C45.2631 24.976 46.0054 26.4607 47.086 28.2366C48.3264 30.2663 48.7398 31.0556 48.7398 31.0556L47.2739 30.8395L49.0123 33.151H47.6216L48.1102 34.0907L50.1775 33.9967C50.4594 34.0907 49.7076 30.9522 50.3184 31.1777C50.6473 31.3187 52.3387 31.7509 52.3387 31.7509L51.5118 30.7361C51.5118 30.7361 53.222 31.2059 53.7857 31.2717C54.3495 31.3375 56.4732 31.2717 56.4732 31.2717C56.2022 31.0167 55.9597 30.7331 55.7496 30.426L55.7684 30.3696Z" fill="#63BC55"/>
<path fill-rule="evenodd" clip-rule="evenodd" d="M9.39649 39.9356L9.47167 39.7758C10.0449 38.3475 10.5335 37.2669 10.5335 37.2669L7.21649 37.8307C8.27465 36.2995 9.21692 34.6913 10.0355 33.0197C10.9751 31.1404 11.9148 28.5094 11.9148 28.5094L9.70658 28.7819C10.5878 28.181 11.3205 27.3873 11.849 26.4609C11.5259 25.8851 11.2342 25.2922 10.9751 24.685C10.7558 24.2648 10.5976 23.8155 10.5053 23.3506L11.1255 23.4822C11.1255 23.4822 10.4865 22.6459 10.4583 22.5425C10.4132 22.4279 10.3425 22.325 10.2516 22.2419L10.8811 22.3828C10.8811 22.3828 9.86632 20.7948 9.50925 20.0149C9.15218 19.235 8.45684 17.1395 8.45684 17.1395C8.45684 17.1395 7.78968 18.8779 7.51718 19.4417C7.24468 20.0055 6.57753 20.9545 6.57753 20.9545L7.17891 20.8606C6.79177 21.7794 6.34284 22.671 5.8352 23.5292C5.52511 24.0084 4.54787 25.4085 4.54787 25.4085L5.79761 25.042C5.61442 25.5067 5.39447 25.956 5.13985 26.3857C4.94253 26.6582 4.28477 27.72 4.28477 27.72L5.41236 27.4288C5.12194 28.253 4.74392 29.0437 4.28477 29.7873L2.69675 32.3995L3.93709 32.221L2.64037 33.9218L3.58003 33.7808C3.58003 33.7808 3.45787 34.1379 2.51822 35.7823C1.91447 36.8226 1.13564 37.7508 0.216059 38.5261L1.91684 38.2536C1.91684 38.2536 0.911407 39.7382 0.714079 40.0013C0.50325 40.3022 0.264112 40.5823 -6.10352e-05 40.8376C-6.10352e-05 40.8376 2.0108 40.8376 2.68735 40.8376C3.36391 40.8376 4.95192 40.3114 4.95192 40.3114L4.13442 41.3169C4.13442 41.3169 5.8258 40.894 6.15468 40.7437C6.75606 40.4806 7.09434 40.3396 7.37623 40.2363L6.95339 43.2244C7.98771 42.3509 8.8211 41.161 9.39649 39.9356Z" fill="#63BC55"/>
<path fill-rule="evenodd" clip-rule="evenodd" d="M11.7551 50.8635C12.1873 50.2903 14.4143 46.9734 14.4143 46.9734L10.6557 47.5935C12.698 45.8545 14.4242 43.7755 15.758 41.4482C17.7971 37.8023 18.1259 37.1446 18.1259 37.1446L16.5285 37.4547L19.0374 33.696L16.2184 34.3256C16.2184 34.3256 17.7783 31.5066 19.7797 28.2742C20.7867 26.6122 21.6151 24.8484 22.251 23.0122L19.7515 23.6417C19.7515 23.6417 21.1986 21.2832 21.6308 20.6724C22.2057 19.7181 22.7022 18.7188 23.1155 17.6843L20.2965 18.5112C20.2965 18.5112 22.4577 15.307 23.1155 14.2264C24.2447 12.3152 25.246 10.3313 26.113 8.28776L24.8539 8.4569C24.8539 8.4569 26.2258 6.22991 26.8553 5.08353C27.4849 3.93716 29.0165 0 29.0165 0C29.0165 0 30.567 4.69828 31.3469 6.39905C32.1268 8.09983 34.4008 11.6705 34.4008 11.6705L33.0101 11.3604C33.2119 11.5433 33.3667 11.7721 33.4611 12.0276C33.5269 12.2155 34.9552 14.0948 34.9552 14.0948L33.5269 13.7659C33.7452 14.7991 34.1024 15.7979 34.5887 16.7353C35.6423 18.9125 36.8579 21.0075 38.2252 23.0028L35.6693 22.5987C35.8954 23.8195 36.3073 24.9984 36.8909 26.0942C38.6198 29.5052 40.1045 30.3509 40.1045 30.3509L37.9902 29.9844C38.6132 32.2657 39.4176 34.4935 40.3958 36.6466C41.4759 38.9276 42.779 41.0962 44.2859 43.1208L39.4279 42.1811C39.4279 42.1811 40.2172 44.6336 41.1193 46.7854C41.9551 48.7853 43.272 50.5477 44.9531 51.916L40.2548 50.9763L42.4254 52.8556L33.4047 50.7414C33.4047 50.7414 32.3711 50.5065 31.1496 50.3373L31.7415 58.6251H26.1036L26.6016 51.3052C25.9908 51.5213 25.2297 51.8502 23.886 52.4328C23.1531 52.7616 19.3851 53.7107 19.3851 53.7107L21.2174 51.4649C21.2174 51.4649 17.4588 52.4985 16.1715 52.6395C14.6586 52.8086 10.1765 52.7241 10.1765 52.7241C10.7779 52.157 11.3166 51.527 11.7833 50.8447L11.7551 50.8635Z" fill="#63BC55"/>
</svg>
