<svg xmlns="http://www.w3.org/2000/svg" width="20" height="22" viewBox="0 0 20 22"><g><g><g /><g ><g ><g ><g ><path fill="currentColor" d="M2.354 22A1.936 1.936 0 0 1 .42 20.066V1.934C.42.867 1.287 0 2.354 0h2.148c.356 0 .645.289.645.645v20.71a.645.645 0 0 1-.645.645zm0-20.71a.645.645 0 0 0-.645.644v18.132c0 .356.29.645.645.645h1.504V1.289z"/></g></g><g ><g ><path fill="currentColor" d="M4.505 22a.645.645 0 0 1-.645-.644V.645c0-.356.289-.645.645-.645h14.437c.356 0 .645.289.645.645v20.71a.645.645 0 0 1-.645.645zm.644-1.29h13.149V1.29H5.149z"/></g></g><g ><g ><path fill="currentColor" d="M11.72 11.65A2.022 2.022 0 0 1 9.7 9.63c0-1.114.906-2.02 2.02-2.02 1.113 0 2.02.906 2.02 2.02 0 1.113-.907 2.02-2.02 2.02zm0-2.75a.731.731 0 1 0 .001 1.462.731.731 0 0 0-.001-1.463z"/></g></g><g ><g ><path fill="currentColor" d="M11.72 17.15a.645.645 0 0 1-.48-.215 34.779 34.779 0 0 1-2.106-2.637c-1.47-2.044-2.184-3.57-2.184-4.668 0-2.63 2.14-4.77 4.77-4.77 2.63 0 4.77 2.14 4.77 4.77 0 1.097-.715 2.624-2.185 4.668a34.766 34.766 0 0 1-2.106 2.637.645.645 0 0 1-.48.214zm0-11a3.484 3.484 0 0 0-3.48 3.48c0 1.332 1.97 4.108 3.48 5.893 1.51-1.786 3.48-4.562 3.48-5.893 0-1.92-1.561-3.48-3.48-3.48z"/></g></g></g></g></g></g></svg>