<svg xmlns="http://www.w3.org/2000/svg" width="14" height="32" viewBox="0 0 14 32">
    <g fill="currentColor">
        <path d="M6.765 5.731c-1.595 0-2.9-1.29-2.9-2.865C3.866 1.29 5.17 0 6.766 0s2.9 1.29 2.9 2.866S8.36 5.73 6.764 5.73zm0-4.776c-1.063 0-1.933.86-1.933 1.91 0 1.051.87 1.911 1.933 1.911 1.063 0 1.933-.86 1.933-1.91 0-1.051-.87-1.91-1.933-1.91zM8.456 32c-1.208 0-2.174-.955-2.174-2.15v-9.313h.966v9.314c0 .668.532 1.194 1.208 1.194.677 0 1.208-.526 1.208-1.194V9.552h.967v20.299c0 1.194-.967 2.149-2.175 2.149z"/>
        <path d="M5.074 32c-1.208 0-2.175-.955-2.175-2.15V9.553h.967v20.299c0 .668.531 1.194 1.208 1.194.676 0 1.208-.526 1.208-1.194v-1.194h.966v1.194c0 1.194-.966 2.149-2.174 2.149z"/>
        <path d="M10.63 19.582v-.955c1.064 0 1.933-.86 1.933-1.91V9.074c0-1.051-.87-1.91-1.932-1.91H2.899c-1.063 0-1.933.859-1.933 1.91v7.641c0 1.051.87 1.91 1.933 1.91v.956C1.305 19.582 0 18.292 0 16.716V9.075c0-1.576 1.305-2.866 2.9-2.866h7.73c1.595 0 2.9 1.29 2.9 2.866v7.641c0 1.577-1.305 2.866-2.9 2.866z"/>
    </g>
</svg>
