<svg xmlns="http://www.w3.org/2000/svg" width="23" height="23" viewBox="0 0 23 23">
    <path fill="none" fill-rule="evenodd" stroke="currentColor" d="M1 17.585c0 .269.05.62.15 1.052.099.432.203.773.312 1.021.21.498.816 1.025 1.82 1.581.935.507 1.86.761 2.774.761.269 0 .532-.017.79-.052.26-.035.545-.097.858-.187l.478-.142c.087-.027.162-.052.223-.074l1.559-.574c.974-.348 1.844-.76 2.61-1.238 1.263-.786 2.575-1.86 3.937-3.222 1.363-1.362 2.436-2.674 3.222-3.937.409-.656.77-1.39 1.085-2.199l.727-1.97h0l.074-.223c.041-.13.089-.29.142-.478.09-.313.152-.599.187-.857.035-.259.052-.522.052-.79 0-.916-.254-1.84-.76-2.775-.557-1.004-1.084-1.61-1.582-1.82-.248-.109-.589-.213-1.021-.313-.433-.1-.783-.149-1.052-.149-.139 0-.243.015-.313.045-.179.06-.442.437-.79 1.133l-.272.484h0l-.576 1.05h0l-.122.219c-.159.283-.313.55-.462.798l-.261.373h0c-.144.208-.251.385-.321.529-.07.144-.104.286-.104.425 0 .199.141.448.425.746.212.224.439.433.68.63l.244.19c.334.249.642.512.925.79.284.28.425.508.425.687 0 .09-.025.201-.074.335l-.07.177c-.01.026-.02.05-.03.07l-.027.06c-.028.055-.078.142-.15.262l-.23.378h0c-.756 1.363-1.621 2.53-2.596 3.505-.866.867-1.885 1.646-3.058 2.34l-.586.338h0l-.323.198-.131.075-.048.025c-.07.035-.171.077-.306.127-.134.05-.246.074-.335.074-.18 0-.408-.141-.686-.425-.186-.189-.365-.389-.537-.6l-.254-.325c-.248-.333-.522-.64-.82-.924-.298-.284-.547-.425-.746-.425-.14 0-.28.034-.425.104-.108.052-.234.125-.379.22l-.523.362h0c-.249.149-.515.303-.798.462l-.45.25h0l-1.087.597-.216.123c-.696.348-1.074.611-1.133.79-.03.07-.045.174-.045.313z"/>
</svg>
