<svg width="20" height="20" viewBox="0 0 20 20" fill="none" xmlns="http://www.w3.org/2000/svg">
<path d="M11.8268 14.4147C11.7569 14.3758 11.6866 14.3375 11.6148 14.2985C11.2979 14.1259 10.9543 13.9389 10.5099 13.6253C9.96529 13.2409 9.26799 12.665 8.3022 11.6979C7.33631 10.7308 6.76025 10.0334 6.3755 9.48898C6.05967 9.04207 5.87172 8.69729 5.6982 8.37898C5.66026 8.30938 5.623 8.24104 5.58526 8.17318C5.44615 7.9216 5.51167 7.60614 5.73945 7.43077L5.74023 7.43016L7.15136 6.33249L7.15147 6.3324C7.55842 6.01538 7.65213 5.43819 7.36639 5.00868L7.36629 5.00852L6.22021 3.28923L6.2202 3.28922L4.85345 1.23908C4.85345 1.23907 4.85345 1.23907 4.85345 1.23907C4.56161 0.801302 3.97742 0.669871 3.52623 0.940451L3.5262 0.940467L1.95062 1.88569C1.48074 2.16277 1.13536 2.60996 0.98595 3.13463L0.985941 3.13462L0.985426 3.1365C0.529318 4.79944 0.486664 8.33695 6.07497 13.9252C11.6633 19.5135 15.2005 19.4706 16.8634 19.0145L16.8653 19.0139C17.39 18.8646 17.8372 18.5191 18.1143 18.0492C18.1144 18.049 18.1145 18.0488 18.1146 18.0486L19.0594 16.4737L19.0595 16.4737C19.3301 16.0225 19.1986 15.4383 18.7609 15.1465L16.7654 13.816L16.7654 13.816L14.9914 12.6336L14.9913 12.6335C14.5618 12.3478 13.9846 12.4415 13.6676 12.8485L13.6675 12.8486L12.5698 14.2597L12.5692 14.2605C12.3938 14.4882 12.0784 14.5538 11.8268 14.4147ZM11.8268 14.4147L11.7296 14.5895M11.8268 14.4147C11.8267 14.4146 11.8266 14.4146 11.8265 14.4145L11.7296 14.5895M11.7296 14.5895C12.0677 14.7767 12.4919 14.6887 12.7277 14.3825L5.61744 7.27229C5.31123 7.50805 5.22323 7.9322 5.41044 8.27033C5.44724 8.33649 5.48387 8.4037 5.52143 8.47262C5.90673 9.17959 6.38996 10.0663 8.16068 11.8392C9.92661 13.6074 10.8151 14.091 11.5215 14.4754C11.5925 14.514 11.6616 14.5517 11.7296 14.5895Z" fill="#FFCD4E" stroke="#FFCD4E" stroke-width="0.4"/>
</svg>
