<svg width="31" height="30" viewBox="0 0 31 30" fill="none" xmlns="http://www.w3.org/2000/svg">
<g >
<path d="M29.0776 23.5769L29.0778 23.5768C29.3262 23.4776 29.5393 23.3061 29.6894 23.0847C29.8395 22.8632 29.9198 22.6018 29.92 22.3342V6.40531C29.92 6.40527 29.92 6.40524 29.92 6.4052C29.9199 6.32147 29.8948 6.23966 29.8479 6.17031C29.801 6.10101 29.7345 6.04732 29.6568 6.01614L29.0776 23.5769ZM29.0776 23.5769L15.8644 28.8622L15.8641 28.8623C15.7639 28.9024 15.6522 28.9024 15.552 28.8623L15.5517 28.8622L2.34038 23.5769L2.33966 23.5766C2.09094 23.4776 1.87763 23.3062 1.72726 23.0847C1.57694 22.8633 1.49642 22.6019 1.49609 22.3343V6.40531C1.49609 6.40528 1.49609 6.40524 1.49609 6.4052C1.49614 6.32146 1.52124 6.23966 1.56817 6.1703C1.61506 6.10101 1.68161 6.04732 1.75926 6.01614C1.75935 6.0161 1.75944 6.01606 1.75954 6.01602L14.8694 0.771346C15.4078 0.556036 16.0083 0.556036 16.5467 0.771346L29.6565 6.01602L29.0776 23.5769ZM4.20519 5.94095L3.04439 6.40524L4.20522 6.86945L15.5224 11.3952L15.708 11.4695L15.8937 11.3952L27.2109 6.86945L28.3717 6.40524L27.2109 5.94095L16.2361 1.5514C16.236 1.55136 16.2359 1.55132 16.2358 1.55128C15.897 1.41562 15.5191 1.41562 15.1803 1.55128C15.1802 1.55132 15.1801 1.55136 15.18 1.5514L4.20519 5.94095ZM29.081 7.76421V7.0257L28.3953 7.29998L16.4418 12.0814L16.1275 12.2071V12.5456V27.1141V27.8526L16.8132 27.5783L28.7667 22.797L29.081 22.6712V22.3327V7.76605V7.76421ZM14.6028 27.5802L15.2885 27.8545V27.1159V12.5438V12.2052L14.9742 12.0795L3.02072 7.29995L2.33509 7.0258V7.76421V22.3346V22.6731L2.64939 22.7988L14.6028 27.5802Z" fill="#0C4743" stroke="#0C4743"/>
</g>
</svg>
