<svg xmlns="http://www.w3.org/2000/svg" viewBox="0 0 42 36">
    <g fill="none" stroke="currentColor" stroke-width="2">
        <path stroke-linejoin="round" d="M34.898 17c1.186 0 2.197.414 3.032 1.243.836.828 1.254 1.83 1.254 3.007v7.286c0 .177-.058.322-.173.436-.114.114-.261.17-.44.17h-1.836v1.215c0 1.012-.357 1.872-1.072 2.58-.714.709-1.581 1.063-2.602 1.063-1.02 0-1.888-.354-2.602-1.063-.714-.708-1.071-1.568-1.071-2.58v-1.214H9.796v1.214c0 1.012-.357 1.872-1.072 2.58C8.01 33.647 7.143 34 6.122 34c-1.02 0-1.887-.354-2.602-1.063-.714-.708-1.071-1.568-1.071-2.58v-1.214H.612c-.178 0-.325-.057-.44-.17-.115-.115-.172-.26-.172-.437V21.25c0-1.176.418-2.179 1.253-3.007C2.09 17.414 3.1 17 4.286 17h.535l2.01-7.95c.293-1.189.956-2.185 1.99-2.988 1.032-.803 2.174-1.205 3.424-1.205h2.449V.607c0-.177.057-.322.172-.436.115-.114.262-.171.44-.171h8.572c.178 0 .325.057.44.17.114.115.172.26.172.437v4.25h2.449c1.25 0 2.391.402 3.425 1.205 1.033.803 1.696 1.8 1.99 2.988L34.361 17h.536z" transform="translate(1 1)"/>
        <path d="M4.665 24.505c.412.41.88.602 1.457.602.578 0 1.046-.193 1.458-.602.411-.407.604-.866.604-1.434 0-.567-.193-1.026-.604-1.433-.412-.41-.88-.602-1.458-.602-.577 0-1.045.193-1.457.602-.411.407-.604.866-.604 1.433 0 .568.193 1.027.604 1.434z" transform="translate(1 1)"/>
        <path stroke-linejoin="round" d="M9.872 17h19.44l-1.704-6.773c-.025-.102-.114-.212-.267-.332-.154-.12-.287-.18-.402-.18H12.245c-.115 0-.249.06-.402.18-.153.12-.242.23-.268.332L9.872 17z" transform="translate(1 1)"/>
        <path d="M31.603 24.505c.413.41.88.602 1.458.602s1.046-.193 1.458-.602c.41-.407.603-.866.603-1.434 0-.567-.192-1.026-.603-1.433-.412-.41-.88-.602-1.458-.602s-1.045.193-1.458.602c-.41.407-.603.866-.603 1.433 0 .568.193 1.027.603 1.434z" transform="translate(1 1)"/>
    </g>
</svg>
