<svg xmlns="http://www.w3.org/2000/svg" viewBox="0 0 27 49">
    <g fill="none" stroke="currentColor" stroke-linejoin="round" stroke-width="2">
        <path stroke-linecap="round" d="M0 .947v13.177c0 3.009 1.893 5.533 4.457 6.267L3.19 44.773c0 1.05 2.012 1.9 2.8 1.9.788 0 2.8-.85 2.8-1.9L7.522 20.39c2.565-.734 4.457-3.258 4.457-6.267V.947M4.028.837v12M8.028.837v12" transform="translate(1 1)"/>
        <path d="M20.813 28.275h0V44.81c0 1.03.834 1.864 1.863 1.864 1.028 0 1.863-.835 1.863-1.864V0c-5.006 0-8.008 7.545-9.005 22.635-.193 2.916 2.014 5.436 4.93 5.628.116.008.232.012.349.012z" transform="translate(1 1)"/>
    </g>
</svg>
