<svg xmlns="http://www.w3.org/2000/svg" viewBox="0 0 42 67">
    <g fill="none" fill-rule="evenodd" transform="translate(1)">
        <path fill="#399DDE" stroke="#FFF" stroke-width="2" d="M13.5 1C7.647 1 3 4.435 3 8.5 3 12.565 7.647 16 13.5 16c4.233 0 7.976-1.82 9.63-4.521l.292-.478L38 11c1.105 0 2-.895 2-2s-.895-2-2-2H23.827l-.256-.616C22.27 3.252 18.21 1 13.5 1z"/>
        <rect width="40" height="10" y="42" fill="#399DDE" stroke="#FFF" stroke-width="2" rx="1"/>
        <circle cx="4" cy="45" r="1" fill="#FFF"/>
        <path fill="#399DDE" stroke="#FFF" stroke-linejoin="round" stroke-width="2" d="M20 6v4c0 1.105-.895 2-2 2h-1v8c0 1.105-.895 2-2 2-.364 0-.706-.097-1-.268V23c0 1.105-.895 2-2 2s-2-.895-2-2V12H9c-1.105 0-2-.895-2-2V6h13z"/>
        <circle cx="4" cy="49" r="1" fill="#FFF"/>
        <circle cx="36" cy="45" r="1" fill="#FFF"/>
        <circle cx="36" cy="49" r="1" fill="#FFF"/>
        <rect width="40" height="10" y="56" fill="#399DDE" stroke="#FFF" stroke-width="2" rx="1"/>
        <circle cx="4" cy="59" r="1" fill="#FFF"/>
        <circle cx="4" cy="63" r="1" fill="#FFF"/>
        <circle cx="36" cy="59" r="1" fill="#FFF"/>
        <circle cx="36" cy="63" r="1" fill="#FFF"/>
        <path stroke="#FFF" stroke-width="2" d="M2.5 51.5v5M37.5 51.5v5"/>
        <path stroke="#FFF" stroke-linejoin="round" stroke-width="2" d="M1.993 41.493L1.993 37.374 5.761 34.336 11.044 35.207 14.006 38.629 12.247 42zM22.093 41.509L19 32.45 14.535 31.613 11.044 35.207M14.006 39.017l6.61-.849"/>
        <path stroke="#FFF" stroke-linejoin="round" stroke-width="2" d="M19.538 34.336L29.372 29.951 36 31.613 36 38.168 37.5 42"/>
        <path stroke="#FFF" stroke-linejoin="round" stroke-width="2" d="M22.093 40.741L25.348 38.168 29.135 36.5M29.372 29.951L29.135 36.561 32.05 41.509"/>
        <path stroke="#FFF" stroke-linecap="round" stroke-width="2" d="M24 26.806l.342-.602c.383-.675.24-1.527-.342-2.04-.486-.428-.533-1.17-.105-1.656.033-.037.068-.072.105-.105.486-.428.533-1.17.105-1.656-.033-.037-.068-.072-.105-.105-.583-.513-.725-1.364-.342-2.04L24 18h0M32 26.806l.342-.602c.383-.675.24-1.527-.342-2.04-.486-.428-.533-1.17-.105-1.656.033-.037.068-.072.105-.105.486-.428.533-1.17.105-1.656-.033-.037-.068-.072-.105-.105-.583-.513-.725-1.364-.342-2.04L32 18h0M28 23.806l.342-.602c.383-.675.24-1.527-.342-2.04-.486-.428-.533-1.17-.105-1.656.033-.037.068-.072.105-.105.486-.428.533-1.17.105-1.656-.033-.037-.068-.072-.105-.105-.583-.513-.725-1.364-.342-2.04L28 15h0"/>
    </g>
</svg>
