<svg xmlns="http://www.w3.org/2000/svg" viewBox="0 0 47 43">
    <g fill="none" fill-rule="evenodd" stroke="currentColor" stroke-linejoin="round" stroke-width="2" transform="translate(1.025 1.05)">
        <path d="M24.612.05l13.106.61c3.562.165 6.43 2.982 6.66 6.541l.547 8.477c.033.514.033 1.03 0 1.545l-.547 8.477c-.23 3.558-3.098 6.376-6.66 6.541l-13.106.61c-1.424.066-2.85.066-4.274 0l-.253-.013-8.94 7c-.381.298-.857.447-1.336.422l-.18-.018c-1.094-.157-1.853-1.17-1.696-2.263h0l.811-5.668-1.512-.07C3.67 32.076.802 29.258.572 25.7l-.547-8.477c-.033-.515-.033-1.03 0-1.545L.572 7.2C.802 3.642 3.67.825 7.232.659L20.338.05c1.424-.066 2.85-.066 4.274 0z"/>
        <circle cx="13.475" cy="16.45" r="2.5"/>
        <circle cx="22.475" cy="16.45" r="2.5"/>
        <circle cx="31.475" cy="16.45" r="2.5"/>
    </g>
</svg>
