<svg width="24" height="24" viewBox="0 0 24 24" fill="none" xmlns="http://www.w3.org/2000/svg">
<g opacity="0.6" clip-path="url(#clip0)">
<path d="M21.8867 21.322H8.87748C8.29589 21.322 7.73407 21.0787 7.33619 20.6546L0.583603 13.4563C0.201135 13.0551 -0.00601897 12.5292 0.000133194 11.9748C0.00628536 11.4191 0.226073 10.8968 0.618966 10.5039L0.88041 10.2424C1.2858 9.83704 1.82456 9.61712 2.39807 9.62355C2.97135 9.62989 3.50532 9.86147 3.90164 10.2757C3.90343 10.2775 3.90516 10.2793 3.90685 10.2812L9.90245 16.6845C10.0351 16.8262 10.2225 16.9074 10.4167 16.9074H21.8867C23.052 16.9074 24 17.8555 24 19.0208V19.2086C24 20.374 23.052 21.322 21.8867 21.322ZM2.37449 11.0323C2.18641 11.0323 2.00987 11.1054 1.87659 11.2387L1.61515 11.5001C1.34652 11.7687 1.34163 12.2107 1.60421 12.4852C1.6058 12.4868 1.60735 12.4885 1.60895 12.4901L8.36365 19.6906C8.49628 19.832 8.68357 19.9131 8.87743 19.9131H21.8867C22.2751 19.9131 22.5911 19.597 22.5911 19.2086V19.0208C22.5911 18.6323 22.2751 18.3163 21.8867 18.3163H10.4167C9.8343 18.3163 9.27201 18.0725 8.87405 17.6474L2.88137 11.2473C2.74949 11.1108 2.57249 11.0345 2.38252 11.0324C2.37989 11.0323 2.37717 11.0323 2.37449 11.0323Z" fill="currentColor"/>
<path d="M5.26227 23.999C5.04662 23.999 4.83373 23.9002 4.69557 23.7137C4.46409 23.401 4.52988 22.9598 4.84256 22.7283C6.56752 21.4512 7.4686 20.7834 7.93978 20.4342C8.19864 20.2424 8.32812 20.1464 8.39307 20.0985C8.50442 20.0164 8.65541 19.9045 8.90318 19.9136C9.28053 19.9269 9.58232 20.237 9.58232 20.6176C9.58232 20.8645 9.45528 21.0818 9.26297 21.2076C9.21831 21.2403 9.08061 21.3423 8.77864 21.5661C8.30741 21.9154 7.40619 22.5833 5.68085 23.8607C5.55485 23.9539 5.40791 23.999 5.26227 23.999ZM8.84485 21.3213C8.87195 21.3225 8.89816 21.3222 8.92324 21.3206C8.8975 21.3222 8.87115 21.3225 8.84485 21.3213ZM8.84377 21.3212C8.84406 21.3212 8.84438 21.3213 8.84467 21.3213C8.84438 21.3213 8.84406 21.3212 8.84377 21.3212ZM8.8426 21.3212H8.84269C8.84269 21.3212 8.84265 21.3212 8.8426 21.3212Z" fill="currentColor"/>
<path d="M21.7927 23.9992C21.4037 23.9992 21.0883 23.6838 21.0883 23.2947V20.6178C21.0883 20.2288 21.4037 19.9134 21.7927 19.9134C22.1817 19.9134 22.4971 20.2288 22.4971 20.6178V23.2947C22.4971 23.6838 22.1817 23.9992 21.7927 23.9992Z" fill="currentColor"/>
<path d="M12.0235 6.6722C11.8879 6.6722 11.7525 6.63205 11.6337 6.55137C11.6265 6.54667 10.6513 5.91826 9.39448 5.91826C8.1377 5.91826 7.16252 6.54667 7.1528 6.55301C6.93662 6.69714 6.65997 6.70977 6.43088 6.58715C6.20184 6.46458 6.06006 6.22502 6.06006 5.96522C6.06006 2.67649 8.73564 0.000915527 12.0244 0.000915527C15.3131 0.000915527 17.9887 2.67649 17.9887 5.96522C17.9887 6.22502 17.8457 6.46374 17.6166 6.58631C17.3884 6.70851 17.1117 6.69564 16.8958 6.55292C16.8784 6.54165 15.906 5.91826 14.6543 5.91826C13.3975 5.91826 12.4223 6.54667 12.4127 6.55301C12.2937 6.63238 12.1585 6.6722 12.0235 6.6722ZM9.39448 4.50937C10.5546 4.50937 11.5156 4.8994 12.0244 5.15741C12.5332 4.8994 13.4943 4.50937 14.6543 4.50937C15.3304 4.50937 15.939 4.64185 16.4297 4.8035C15.9149 2.85256 14.1349 1.40981 12.0245 1.40981C9.91399 1.40981 8.13404 2.85251 7.61909 4.8035C8.10986 4.6419 8.7184 4.50937 9.39448 4.50937Z" fill="currentColor"/>
<path d="M12.0244 18.3166C11.6354 18.3166 11.3199 18.0012 11.3199 17.6121V0.705422C11.3199 0.31638 11.6354 0.000976562 12.0244 0.000976562C12.4134 0.000976562 12.7288 0.31638 12.7288 0.705422V17.6121C12.7288 18.0012 12.4134 18.3166 12.0244 18.3166Z" fill="currentColor"/>
</g>
<defs>
<clipPath id="clip0">
<rect width="24" height="24" fill="currentColor"/>
</clipPath>
</defs>
</svg>
